<svg data-v-423bf9ae="" xmlns="http://www.w3.org/2000/svg" viewBox="0 0 478 90" class="iconLeftSlogan"><!----><!----><!----><g data-v-423bf9ae="" id="1ff0e5a5-b320-45e7-870c-f2f57ff3fc2b" fill="white" transform="matrix(6.187886862428784,0,0,6.187886862428784,85.35633462064109,-20.420026589372128)"><path d="M1.41 12.84L1.41 4.03L2.52 4.03L2.52 12.84L1.41 12.84ZM6.27 6.15L6.40 7.43L6.40 7.43Q7.06 5.98 8.65 5.98L8.65 5.98L8.65 5.98Q9.84 5.98 10.51 6.76L10.51 6.76L10.51 6.76Q11.17 7.55 11.17 8.90L11.17 8.90L11.17 12.84L10.08 12.84L10.08 8.90L10.08 8.90Q10.08 7.94 9.63 7.45L9.63 7.45L9.63 7.45Q9.17 6.96 8.33 6.96L8.33 6.96L8.33 6.96Q7.49 6.96 6.97 7.64L6.97 7.64L6.97 7.64Q6.45 8.33 6.43 9.55L6.43 9.55L6.43 12.84L5.32 12.84L5.32 6.15L6.27 6.15ZM17.12 11.86L17.28 12.64L17.28 12.64Q16.07 13.20 15.08 12.88L15.08 12.88L15.08 12.88Q14.36 12.66 14.07 11.94L14.07 11.94L14.07 11.94Q13.92 11.59 13.92 11.10L13.92 11.10L13.92 6.99L12.84 6.99L12.84 6.15L13.92 6.15L13.92 4.28L15.01 4.28L15.01 6.15L17.11 6.15L17.11 6.99L15.01 6.99L15.01 11.09L15.01 11.09Q15.01 12.11 15.96 12.11L15.96 12.11L15.96 12.11Q16.48 12.11 17.12 11.86L17.12 11.86ZM21.35 12.10L21.35 12.10L21.35 12.10Q22.74 12.10 22.93 10.88L22.93 10.88L24.07 10.88L24.07 10.88Q23.91 11.89 23.18 12.44L23.18 12.44L23.18 12.44Q22.44 12.99 21.35 12.99L21.35 12.99L21.35 12.99Q20.01 12.99 19.17 12.03L19.17 12.03L19.17 12.03Q18.33 11.07 18.33 9.48L18.33 9.48L18.33 9.48Q18.33 7.88 19.17 6.93L19.17 6.93L19.17 6.93Q20.02 5.98 21.43 5.98L21.43 5.98L21.43 5.98Q22.83 5.98 23.53 7.07L23.53 7.07L23.53 7.07Q24.22 8.16 24.01 9.73L24.01 9.73L19.43 9.73L19.43 9.73Q19.43 10.77 19.94 11.43L19.94 11.43L19.94 11.43Q20.44 12.10 21.35 12.10ZM22.16 7.03L22.16 7.03L22.16 7.03Q21.84 6.86 21.38 6.86L21.38 6.86L21.38 6.86Q20.52 6.86 20.03 7.44L20.03 7.44L20.03 7.44Q19.53 8.02 19.45 8.89L19.45 8.89L23.02 8.89L23.02 8.89Q23.02 7.49 22.16 7.03ZM28.98 7.08L28.98 7.08L28.98 7.08Q27.40 7.08 27.34 9.58L27.34 9.58L27.34 12.84L26.24 12.84L26.24 6.13L27.34 6.13L27.34 7.42L27.34 7.42Q27.85 6.02 29.12 6.02L29.12 6.02L29.12 6.02Q29.53 6.02 29.89 6.15L29.89 6.15L29.83 7.22L29.83 7.22Q29.41 7.08 28.98 7.08ZM29.58 4.98L29.58 4.03L36.43 4.03L36.43 4.98L33.56 4.98L33.56 12.84L32.45 12.84L32.45 4.98L29.58 4.98ZM39.63 7.08L39.63 7.08L39.63 7.08Q38.05 7.08 38.00 9.58L38.00 9.58L38.00 12.84L36.89 12.84L36.89 6.13L38.00 6.13L38.00 7.42L38.00 7.42Q38.50 6.02 39.77 6.02L39.77 6.02L39.77 6.02Q40.18 6.02 40.54 6.15L40.54 6.15L40.49 7.22L40.49 7.22Q40.07 7.08 39.63 7.08ZM46.38 9.35L46.38 8.50L46.38 8.50Q46.38 7.59 46.00 7.20L46.00 7.20L46.00 7.20Q45.63 6.80 44.91 6.80L44.91 6.80L44.91 6.80Q44.18 6.80 43.74 7.09L43.74 7.09L43.74 7.09Q43.30 7.38 43.30 7.99L43.30 7.99L42.08 7.99L42.08 7.99Q42.08 6.45 43.74 6.09L43.74 6.09L43.74 6.09Q44.24 5.98 44.83 5.98L44.83 5.98L44.83 5.98Q46.07 5.98 46.77 6.61L46.77 6.61L46.77 6.61Q47.47 7.24 47.47 8.53L47.47 8.53L47.47 12.84L46.52 12.84L46.41 11.72L46.41 11.72Q45.79 12.99 44.18 12.99L44.18 12.99L44.18 12.99Q43.11 12.99 42.46 12.39L42.46 12.39L42.46 12.39Q41.80 11.79 41.80 10.89L41.80 10.89L41.80 10.89Q41.80 10.00 42.53 9.49L42.53 9.49L42.53 9.49Q43.25 8.99 44.32 8.99L44.32 8.99L44.32 8.99Q45.40 8.99 46.38 9.35L46.38 9.35ZM46.38 10.05L46.38 10.05L46.38 10.05Q45.39 9.77 44.65 9.77L44.65 9.77L44.65 9.77Q43.90 9.77 43.44 10.04L43.44 10.04L43.44 10.04Q42.98 10.30 42.98 10.88L42.98 10.88L42.98 10.88Q42.98 12.14 44.41 12.14L44.41 12.14L44.41 12.14Q45.22 12.14 45.80 11.56L45.80 11.56L45.80 11.56Q46.38 10.98 46.38 10.05ZM54.46 7.14L54.46 7.14L54.46 3.30L55.55 3.30L55.55 12.84L54.66 12.84L54.52 11.72L54.52 11.72Q54.19 12.35 53.66 12.67L53.66 12.67L53.66 12.67Q53.13 12.99 52.50 12.99L52.50 12.99L52.50 12.99Q51.23 12.99 50.37 12.01L50.37 12.01L50.37 12.01Q49.50 11.03 49.50 9.46L49.50 9.46L49.50 9.46Q49.50 7.88 50.35 6.93L50.35 6.93L50.35 6.93Q51.20 5.98 52.49 5.98L52.49 5.98L52.49 5.98Q53.79 5.98 54.46 7.14ZM52.56 6.96L52.56 6.96L52.56 6.96Q51.74 6.96 51.19 7.64L51.19 7.64L51.19 7.64Q50.64 8.33 50.64 9.48L50.64 9.48L50.64 9.48Q50.64 10.63 51.20 11.32L51.20 11.32L51.20 11.32Q51.76 12.01 52.54 12.01L52.54 12.01L52.54 12.01Q53.33 12.01 53.88 11.49L53.88 11.49L53.88 11.49Q54.43 10.96 54.46 10.08L54.46 10.08L54.46 8.99L54.46 8.99Q54.46 8.05 53.91 7.50L53.91 7.50L53.91 7.50Q53.37 6.96 52.56 6.96ZM60.70 12.10L60.70 12.10L60.70 12.10Q62.09 12.10 62.29 10.88L62.29 10.88L63.42 10.88L63.42 10.88Q63.27 11.89 62.53 12.44L62.53 12.44L62.53 12.44Q61.80 12.99 60.70 12.99L60.70 12.99L60.70 12.99Q59.36 12.99 58.52 12.03L58.52 12.03L58.52 12.03Q57.68 11.07 57.68 9.48L57.68 9.48L57.68 9.48Q57.68 7.88 58.53 6.93L58.53 6.93L58.53 6.93Q59.37 5.98 60.78 5.98L60.78 5.98L60.78 5.98Q62.19 5.98 62.88 7.07L62.88 7.07L62.88 7.07Q63.57 8.16 63.36 9.73L63.36 9.73L58.79 9.73L58.79 9.73Q58.79 10.77 59.29 11.43L59.29 11.43L59.29 11.43Q59.79 12.10 60.70 12.10ZM61.52 7.03L61.52 7.03L61.52 7.03Q61.19 6.86 60.73 6.86L60.73 6.86L60.73 6.86Q59.88 6.86 59.38 7.44L59.38 7.44L59.38 7.44Q58.88 8.02 58.80 8.89L58.80 8.89L62.37 8.89L62.37 8.89Q62.37 7.49 61.52 7.03Z"></path></g><!----><g data-v-423bf9ae="" id="48c3c71f-5f5d-416d-b035-b696ebcb7752" transform="matrix(2.8125,0,0,2.8125,-7.170000076293945,0)" stroke="none" fill="white"><path d="M2.83 18.247l26.34-9.124L2.83 0zM29.17 32V13.753L2.83 22.877z"></path></g><!----><g data-v-423bf9ae="" id="fc704993-1e3f-4d5c-99fb-d5b691190d22" fill="white" transform="matrix(0.7171997760765706,0,0,0.7171997760765706,93.88043360730543,57.63324225382899)"><path d="M0.28 3.71L0.28 3.71L0.28 3.71Q0.28 3.50 0.67 3.50L0.67 3.50L0.67 3.50Q0.81 3.50 1.32 3.53L1.32 3.53L1.32 3.53Q1.82 3.56 2.25 3.56L2.25 3.56L2.25 3.56Q2.52 3.56 2.77 3.54L2.77 3.54L2.77 3.54Q3.01 3.53 3.49 3.53L3.49 3.53L3.49 3.53Q3.86 3.53 3.86 3.72L3.86 3.72L3.86 3.72Q3.86 3.84 3.22 4.10L3.22 4.10L3.22 4.10Q2.77 4.28 2.77 5.71L2.77 5.71L2.77 5.71Q2.77 7.60 2.75 9.05L2.75 9.05L2.75 9.05Q2.73 10.50 2.73 10.89L2.73 10.89L2.73 10.89Q2.73 12.07 3.08 12.59L3.08 12.59L3.08 12.59Q3.39 13.02 3.75 13.02L3.75 13.02L3.75 13.02Q3.78 13.02 3.89 13.03L3.89 13.03L3.89 13.03Q4.00 13.03 4.03 13.03L4.03 13.03L4.03 13.03Q4.13 13.03 4.23 13.08L4.23 13.08L4.23 13.08Q4.33 13.13 4.33 13.19L4.33 13.19L4.33 13.19Q4.33 13.34 4.25 13.39L4.25 13.39L4.25 13.39Q4.17 13.44 3.98 13.44L3.98 13.44L3.98 13.44Q3.56 13.44 3.20 13.41L3.20 13.41L3.20 13.41Q2.84 13.38 2.65 13.38L2.65 13.38L2.65 13.38Q2.25 13.38 1.79 13.42L1.79 13.42L1.79 13.42Q1.33 13.45 1.11 13.45L1.11 13.45L1.11 13.45Q0.48 13.45 0.48 13.24L0.48 13.24L0.48 13.24Q0.48 13.12 0.61 13.07L0.61 13.07L0.61 13.07Q0.74 13.02 0.91 13.00L0.91 13.00L0.91 13.00Q1.08 12.98 1.26 12.82L1.26 12.82L1.26 12.82Q1.44 12.66 1.51 12.35L1.51 12.35L1.51 12.35Q1.54 12.25 1.60 10.76L1.60 10.76L1.60 10.76Q1.67 9.27 1.67 8.61L1.67 8.61L1.67 7.81L1.67 7.81Q1.67 7.63 1.67 7.12L1.67 7.12L1.67 7.12Q1.68 6.61 1.68 6.30L1.68 6.30L1.68 5.66L1.68 5.66Q1.68 5.04 1.62 4.63L1.62 4.63L1.62 4.63Q1.58 4.30 1.25 4.12L1.25 4.12L1.25 4.12Q0.92 3.93 0.57 3.92L0.57 3.92L0.57 3.92Q0.28 3.91 0.28 3.71ZM11.87 3.68L11.87 3.68L11.87 3.68Q11.87 3.64 11.89 3.60L11.89 3.60L11.89 3.60Q11.91 3.56 12.01 3.50L12.01 3.50L12.01 3.50Q12.10 3.44 12.24 3.44L12.24 3.44L12.61 3.44L12.61 3.44Q12.95 3.44 13.70 3.49L13.70 3.49L13.70 3.49Q14.45 3.53 15.65 3.53L15.65 3.53L15.65 3.53Q16.65 3.53 17.42 3.49L17.42 3.49L17.42 3.49Q18.19 3.46 18.83 3.46L18.83 3.46L18.83 3.46Q19.07 3.46 19.07 3.79L19.07 3.79L19.07 3.79Q19.07 3.92 19.04 4.11L19.04 4.11L19.04 4.11Q19.01 4.30 18.96 4.61L18.96 4.61L18.96 4.61Q18.90 4.93 18.87 5.22L18.87 5.22L18.87 5.22Q18.84 5.50 18.66 5.50L18.66 5.50L18.66 5.50Q18.47 5.50 18.47 5.22L18.47 5.22L18.47 5.22Q18.47 4.30 17.82 4.26L17.82 4.26L17.82 4.26Q15.71 4.09 15.30 4.09L15.30 4.09L15.30 4.09Q14.67 4.09 14.53 4.24L14.53 4.24L14.53 4.24Q14.38 4.40 14.36 4.87L14.36 4.87L14.36 4.87Q14.36 4.94 14.36 4.98L14.36 4.98L14.36 4.98Q14.32 5.74 14.32 7.32L14.32 7.32L14.32 7.32Q14.32 8.01 14.57 8.02L14.57 8.02L14.57 8.02Q14.64 8.02 14.76 8.03L14.76 8.03L14.76 8.03Q14.88 8.04 14.92 8.04L14.92 8.04L14.92 8.04Q15.02 8.04 15.22 8.03L15.22 8.03L15.22 8.03Q15.41 8.02 15.53 8.02L15.53 8.02L15.96 8.02L15.96 8.02Q16.80 8.02 17.07 7.97L17.07 7.97L17.07 7.97Q17.35 7.92 17.57 7.77L17.57 7.77L17.57 7.77Q17.70 7.69 17.77 7.57L17.77 7.57L17.77 7.57Q17.84 7.46 17.86 7.31L17.86 7.31L17.86 7.31Q17.89 7.15 17.93 7.08L17.93 7.08L17.93 7.08Q17.98 7.01 18.10 7.01L18.10 7.01L18.10 7.01Q18.23 7.01 18.26 7.06L18.26 7.06L18.26 7.06Q18.28 7.10 18.28 7.24L18.28 7.24L18.28 7.24Q18.28 7.34 18.22 7.73L18.22 7.73L18.22 7.73Q18.16 8.12 18.16 8.40L18.16 8.40L18.16 8.40Q18.16 8.67 18.21 9.05L18.21 9.05L18.21 9.05Q18.26 9.44 18.26 9.55L18.26 9.55L18.26 9.55Q18.26 9.77 18.21 9.83L18.21 9.83L18.21 9.83Q18.16 9.90 18.06 9.90L18.06 9.90L18.06 9.90Q17.82 9.90 17.77 9.55L17.77 9.55L17.77 9.55Q17.77 9.52 17.75 9.42L17.75 9.42L17.75 9.42Q17.74 9.32 17.73 9.28L17.73 9.28L17.73 9.28Q17.72 9.24 17.70 9.16L17.70 9.16L17.70 9.16Q17.67 9.09 17.64 9.04L17.64 9.04L17.64 9.04Q17.61 9.00 17.57 8.95L17.57 8.95L17.57 8.95Q17.53 8.90 17.46 8.88L17.46 8.88L17.46 8.88Q17.26 8.79 16.76 8.74L16.76 8.74L16.76 8.74Q16.25 8.68 16.10 8.68L16.10 8.68L14.88 8.68L14.88 8.68Q14.31 8.68 14.31 8.95L14.31 8.95L14.31 8.95Q14.31 9.35 14.29 9.96L14.29 9.96L14.29 9.96Q14.28 10.57 14.28 10.96L14.28 10.96L14.28 10.96Q14.28 11.06 14.27 11.25L14.27 11.25L14.27 11.25Q14.27 11.44 14.27 11.52L14.27 11.52L14.27 11.52Q14.27 11.80 14.32 12.08L14.32 12.08L14.32 12.08Q14.38 12.36 14.65 12.67L14.65 12.67L14.65 12.67Q14.92 12.98 15.39 12.98L15.39 12.98L15.39 12.98Q15.81 12.98 15.81 13.23L15.81 13.23L15.81 13.23Q15.81 13.27 15.78 13.33L15.78 13.33L15.78 13.33Q15.75 13.38 15.64 13.44L15.64 13.44L15.64 13.44Q15.54 13.50 15.37 13.50L15.37 13.50L15.37 13.50Q15.15 13.50 14.67 13.44L14.67 13.44L14.67 13.44Q14.18 13.38 14.01 13.38L14.01 13.38L14.01 13.38Q13.62 13.38 13.14 13.43L13.14 13.43L13.14 13.43Q12.66 13.47 12.32 13.47L12.32 13.47L12.32 13.47Q12.04 13.47 12.04 13.31L12.04 13.31L12.04 13.31Q12.04 13.13 12.10 13.09L12.10 13.09L12.10 13.09Q12.17 13.05 12.64 12.88L12.64 12.88L12.64 12.88Q13.01 12.75 13.09 12.13L13.09 12.13L13.09 12.13Q13.17 11.51 13.19 9.60L13.19 9.60L13.19 9.60Q13.19 8.86 13.19 8.44L13.19 8.44L13.19 8.44Q13.19 8.06 13.21 7.26L13.21 7.26L13.21 7.26Q13.23 6.45 13.23 6.01L13.23 6.01L13.23 5.19L13.23 5.19Q13.23 4.27 12.57 3.96L12.57 3.96L12.57 3.96Q12.47 3.92 12.33 3.90L12.33 3.90L12.33 3.90Q12.19 3.88 12.10 3.88L12.10 3.88L12.10 3.88Q12.01 3.88 11.94 3.83L11.94 3.83L11.94 3.83Q11.87 3.78 11.87 3.68ZM36.61 3.81L36.61 3.81L36.61 3.81Q36.61 3.65 36.77 3.61L36.77 3.61L36.77 3.61Q36.93 3.57 37.48 3.57L37.48 3.57L37.48 3.57Q37.56 3.57 37.86 3.58L37.86 3.58L37.86 3.58Q38.16 3.60 38.29 3.60L38.29 3.60L38.29 3.60Q38.44 3.60 38.86 3.59L38.86 3.59L38.86 3.59Q39.27 3.58 39.48 3.58L39.48 3.58L39.48 3.58Q40.18 3.58 40.18 3.75L40.18 3.75L40.18 3.75Q40.18 3.91 39.89 4.01L39.89 4.01L39.89 4.01Q39.59 4.12 39.59 4.24L39.59 4.24L39.59 4.24Q39.59 4.38 39.68 4.61L39.68 4.61L39.68 4.61Q39.77 4.83 39.86 4.97L39.86 4.97L39.86 4.97Q39.96 5.11 40.14 5.38L40.14 5.38L40.14 5.38Q40.32 5.64 40.35 5.70L40.35 5.70L40.35 5.70Q40.82 6.45 41.34 7.14L41.34 7.14L41.34 7.14Q41.85 7.83 41.92 7.83L41.92 7.83L41.92 7.83Q42 7.83 42.13 7.66L42.13 7.66L42.13 7.66Q42.25 7.50 42.48 7.13L42.48 7.13L42.48 7.13Q42.70 6.75 42.85 6.52L42.85 6.52L42.85 6.52Q42.90 6.45 43.06 6.22L43.06 6.22L43.06 6.22Q43.22 5.98 43.28 5.88L43.28 5.88L43.28 5.88Q43.34 5.78 43.47 5.58L43.47 5.58L43.47 5.58Q43.60 5.38 43.65 5.27L43.65 5.27L43.65 5.27Q43.71 5.17 43.78 5.02L43.78 5.02L43.78 5.02Q43.86 4.87 43.89 4.77L43.89 4.77L43.89 4.77Q43.92 4.68 43.92 4.59L43.92 4.59L43.92 4.59Q43.92 4.14 43.44 4.03L43.44 4.03L43.44 4.03Q43.39 4.02 43.28 4.00L43.28 4.00L43.28 4.00Q43.18 3.99 43.13 3.98L43.13 3.98L43.13 3.98Q43.08 3.96 43.01 3.93L43.01 3.93L43.01 3.93Q42.94 3.91 42.91 3.86L42.91 3.86L42.91 3.86Q42.88 3.81 42.88 3.74L42.88 3.74L42.88 3.74Q42.88 3.57 43.27 3.57L43.27 3.57L43.27 3.57Q43.34 3.57 43.53 3.58L43.53 3.58L43.53 3.58Q43.72 3.58 43.85 3.58L43.85 3.58L43.85 3.58Q44.17 3.58 44.63 3.59L44.63 3.59L44.63 3.59Q45.08 3.60 45.33 3.60L45.33 3.60L45.33 3.60Q46.02 3.60 46.02 3.81L46.02 3.81L46.02 3.81Q46.02 3.86 45.93 3.91L45.93 3.91L45.93 3.91Q45.85 3.95 45.70 4.02L45.70 4.02L45.70 4.02Q45.54 4.09 45.42 4.19L45.42 4.19L45.42 4.19Q44.84 4.63 43.73 6.31L43.73 6.31L43.73 6.31Q42.62 7.99 42.46 8.19L42.46 8.19L42.46 8.19Q42.24 8.47 42.18 8.81L42.18 8.81L42.18 8.81Q42.13 9.14 42.13 9.95L42.13 9.95L42.13 9.95Q42.13 10.14 42.13 10.73L42.13 10.73L42.13 10.73Q42.14 11.33 42.14 11.58L42.14 11.58L42.14 11.91L42.14 11.91Q42.14 12.38 42.30 12.64L42.30 12.64L42.30 12.64Q42.46 12.91 42.60 12.96L42.60 12.96L42.60 12.96Q42.74 13.01 42.88 13.01L42.88 13.01L42.88 13.01Q42.91 13.01 43.02 13.01L43.02 13.01L43.02 13.01Q43.13 13.02 43.16 13.02L43.16 13.02L43.16 13.02Q43.26 13.02 43.32 13.08L43.32 13.08L43.32 13.08Q43.37 13.15 43.37 13.22L43.37 13.22L43.37 13.22Q43.37 13.36 43.30 13.40L43.30 13.40L43.30 13.40Q43.23 13.44 43.04 13.44L43.04 13.44L43.04 13.44Q42.97 13.44 42.43 13.43L42.43 13.43L42.43 13.43Q41.89 13.43 41.64 13.43L41.64 13.43L41.64 13.43Q41.15 13.43 40.74 13.45L40.74 13.45L40.74 13.45Q40.33 13.48 40.10 13.48L40.10 13.48L40.10 13.48Q39.70 13.48 39.70 13.33L39.70 13.33L39.70 13.33Q39.70 13.20 39.78 13.15L39.78 13.15L39.78 13.15Q39.86 13.10 40.04 13.09L40.04 13.09L40.04 13.09Q40.22 13.08 40.31 13.05L40.31 13.05L40.31 13.05Q40.89 12.87 40.89 12.19L40.89 12.19L40.89 12.19Q40.89 12.11 40.90 11.92L40.90 11.92L40.90 11.92Q40.91 11.73 40.91 11.12L40.91 11.12L40.91 11.12Q40.92 10.50 40.92 9.35L40.92 9.35L40.92 9.35Q40.92 9.13 40.89 8.97L40.89 8.97L40.89 8.97Q40.85 8.81 40.80 8.65L40.80 8.65L40.80 8.65Q40.75 8.50 40.56 8.20L40.56 8.20L40.56 8.20Q40.38 7.91 40.19 7.64L40.19 7.64L40.19 7.64Q40.01 7.36 39.57 6.72L39.57 6.72L39.57 6.72Q39.13 6.08 38.72 5.46L38.72 5.46L38.72 5.46Q38.29 4.80 37.94 4.46L37.94 4.46L37.94 4.46Q37.59 4.12 37.40 4.05L37.40 4.05L37.40 4.05Q37.21 3.99 36.96 3.99L36.96 3.99L36.96 3.99Q36.61 3.99 36.61 3.81ZM53.51 8.69L53.51 8.69L53.51 8.69Q53.51 6.34 54.92 4.84L54.92 4.84L54.92 4.84Q56.34 3.33 58.93 3.33L58.93 3.33L58.93 3.33Q60.13 3.33 61.10 3.68L61.10 3.68L61.10 3.68Q62.06 4.03 62.62 4.54L62.62 4.54L62.62 4.54Q63.18 5.05 63.56 5.71L63.56 5.71L63.56 5.71Q63.94 6.37 64.08 6.92L64.08 6.92L64.08 6.92Q64.22 7.48 64.22 7.95L64.22 7.95L64.22 7.95Q64.22 9.86 63.48 11.16L63.48 11.16L63.48 11.16Q62.73 12.47 61.52 13.07L61.52 13.07L61.52 13.07Q60.31 13.66 58.73 13.66L58.73 13.66L58.73 13.66Q57.06 13.66 55.85 12.94L55.85 12.94L55.85 12.94Q54.64 12.21 54.08 11.10L54.08 11.10L54.08 11.10Q53.51 10.00 53.51 8.69ZM54.74 7.98L54.74 7.98L54.74 7.98Q54.74 8.54 54.89 9.19L54.89 9.19L54.89 9.19Q55.05 9.84 55.40 10.54L55.40 10.54L55.40 10.54Q55.75 11.23 56.25 11.78L56.25 11.78L56.25 11.78Q56.74 12.33 57.51 12.69L57.51 12.69L57.51 12.69Q58.27 13.05 59.18 13.05L59.18 13.05L59.18 13.05Q59.65 13.05 60.18 12.90L60.18 12.90L60.18 12.90Q60.70 12.75 61.22 12.45L61.22 12.45L61.22 12.45Q61.74 12.14 62.15 11.70L62.15 11.70L62.15 11.70Q62.55 11.26 62.81 10.62L62.81 10.62L62.81 10.62Q63.07 9.98 63.07 9.24L63.07 9.24L63.07 9.24Q63.07 6.71 61.74 5.30L61.74 5.30L61.74 5.30Q60.41 3.89 58.45 3.89L58.45 3.89L58.45 3.89Q56.91 3.89 55.83 4.93L55.83 4.93L55.83 4.93Q54.74 5.96 54.74 7.98ZM72.11 3.68L72.11 3.68L72.11 3.68Q72.11 3.61 72.13 3.58L72.13 3.58L72.13 3.58Q72.14 3.56 72.21 3.53L72.21 3.53L72.21 3.53Q72.28 3.50 72.44 3.50L72.44 3.50L72.44 3.50Q72.59 3.50 73.08 3.53L73.08 3.53L73.08 3.53Q73.57 3.56 74.02 3.56L74.02 3.56L74.02 3.56Q74.30 3.56 74.53 3.54L74.53 3.54L74.53 3.54Q74.76 3.53 75.33 3.53L75.33 3.53L75.33 3.53Q75.63 3.53 75.63 3.72L75.63 3.72L75.63 3.72Q75.63 3.85 75.53 3.88L75.53 3.88L75.53 3.88Q75.43 3.91 75.28 3.92L75.28 3.92L75.28 3.92Q75.14 3.93 74.99 4.02L74.99 4.02L74.99 4.02Q74.84 4.10 74.75 4.43L74.75 4.43L74.75 4.43Q74.65 4.76 74.65 5.32L74.65 5.32L74.65 5.71L74.65 5.71Q74.65 6.37 74.64 7.37L74.64 7.37L74.64 7.37Q74.63 8.37 74.63 8.74L74.63 8.74L74.63 8.74Q74.63 9.17 74.64 9.39L74.64 9.39L74.64 9.39Q74.65 9.62 74.68 10.04L74.68 10.04L74.68 10.04Q74.70 10.47 74.75 10.72L74.75 10.72L74.75 10.72Q74.80 10.96 74.91 11.32L74.91 11.32L74.91 11.32Q75.03 11.68 75.19 11.89L75.19 11.89L75.19 11.89Q75.35 12.10 75.59 12.35L75.59 12.35L75.59 12.35Q75.84 12.60 76.16 12.73L76.16 12.73L76.16 12.73Q76.48 12.87 76.92 12.96L76.92 12.96L76.92 12.96Q77.35 13.05 77.88 13.05L77.88 13.05L77.88 13.05Q78.33 13.05 78.58 13.03L78.58 13.03L78.58 13.03Q78.83 13.02 79.28 12.94L79.28 12.94L79.28 12.94Q79.72 12.87 79.98 12.72L79.98 12.72L79.98 12.72Q80.23 12.57 80.56 12.27L80.56 12.27L80.56 12.27Q80.89 11.97 81.07 11.54L81.07 11.54L81.07 11.54Q81.26 11.10 81.38 10.43L81.38 10.43L81.38 10.43Q81.51 9.76 81.51 8.90L81.51 8.90L81.51 8.90Q81.51 7.49 81.50 6.75L81.50 6.75L81.50 6.75Q81.49 6.01 81.49 5.94L81.49 5.94L81.49 5.94Q81.49 5.45 81.47 5.17L81.47 5.17L81.47 5.17Q81.45 4.89 81.33 4.55L81.33 4.55L81.33 4.55Q81.21 4.21 80.99 4.06L80.99 4.06L80.99 4.06Q80.85 3.96 80.63 3.93L80.63 3.93L80.63 3.93Q80.40 3.89 80.26 3.87L80.26 3.87L80.26 3.87Q80.12 3.85 80.12 3.75L80.12 3.75L80.12 3.75Q80.12 3.53 80.40 3.53L80.40 3.53L80.40 3.53Q80.49 3.53 80.95 3.54L80.95 3.54L80.95 3.54Q81.41 3.56 81.48 3.56L81.48 3.56L81.48 3.56Q81.82 3.56 82.19 3.54L82.19 3.54L82.19 3.54Q82.57 3.51 82.67 3.51L82.67 3.51L82.67 3.51Q82.96 3.51 82.96 3.70L82.96 3.70L82.96 3.70Q82.96 3.81 82.66 3.98L82.66 3.98L82.66 3.98Q82.36 4.16 82.29 4.30L82.29 4.30L82.29 4.30Q82.14 4.59 82.14 5.22L82.14 5.22L82.14 5.22Q82.14 5.32 82.15 5.62L82.15 5.62L82.15 5.62Q82.15 5.92 82.15 6.16L82.15 6.16L82.15 6.16Q82.15 8.85 81.93 10.28L81.93 10.28L81.93 10.28Q81.70 11.70 81.25 12.36L81.25 12.36L81.25 12.36Q80.79 13.01 79.88 13.40L79.88 13.40L79.88 13.40Q79.14 13.71 77.88 13.71L77.88 13.71L77.88 13.71Q75.54 13.71 74.56 12.81L74.56 12.81L74.56 12.81Q73.79 12.10 73.61 11.09L73.61 11.09L73.61 11.09Q73.43 10.09 73.43 7.64L73.43 7.64L73.43 7.41L73.43 7.41Q73.43 6.86 73.44 6.20L73.44 6.20L73.44 6.20Q73.46 5.54 73.46 5.39L73.46 5.39L73.46 5.39Q73.46 4.62 73.28 4.33L73.28 4.33L73.28 4.33Q73.09 4.05 72.42 3.95L72.42 3.95L72.42 3.95Q72.11 3.91 72.11 3.68ZM100.84 8.90L100.84 8.90L100.84 8.90Q100.84 7.38 101.43 6.16L101.43 6.16L101.43 6.16Q102.02 4.94 103.24 4.19L103.24 4.19L103.24 4.19Q104.47 3.44 106.15 3.44L106.15 3.44L106.15 3.44Q107.00 3.44 107.87 3.70L107.87 3.70L107.87 3.70Q108.74 3.95 109.26 4.20L109.26 4.20L109.77 4.47L109.77 4.47Q109.82 4.47 109.91 4.40L109.91 4.40L109.91 4.40Q110.01 4.33 110.07 4.33L110.07 4.33L110.07 4.33Q110.14 4.33 110.21 4.38L110.21 4.38L110.21 4.38Q110.28 4.44 110.28 4.55L110.28 4.55L110.28 4.55Q110.29 4.96 110.34 5.41L110.34 5.41L110.34 5.41Q110.39 5.87 110.43 6.16L110.43 6.16L110.43 6.16Q110.47 6.45 110.47 6.51L110.47 6.51L110.47 6.51Q110.47 6.76 110.31 6.76L110.31 6.76L110.31 6.76Q110.18 6.76 110.07 6.57L110.07 6.57L110.07 6.57Q108.71 4.02 106.15 4.02L106.15 4.02L106.15 4.02Q104.40 4.02 103.28 5.14L103.28 5.14L103.28 5.14Q102.16 6.26 102.16 8.06L102.16 8.06L102.16 8.06Q102.16 9.06 102.42 9.93L102.42 9.93L102.42 9.93Q102.68 10.79 103.20 11.51L103.20 11.51L103.20 11.51Q103.73 12.24 104.65 12.66L104.65 12.66L104.65 12.66Q105.57 13.08 106.81 13.08L106.81 13.08L106.81 13.08Q108.82 13.08 110.19 10.98L110.19 10.98L110.19 10.98Q110.25 10.88 110.40 10.88L110.40 10.88L110.40 10.88Q110.53 10.88 110.53 11.07L110.53 11.07L110.53 11.07Q110.53 11.23 110.48 11.49L110.48 11.49L110.48 11.49Q110.43 11.75 110.36 12.06L110.36 12.06L110.36 12.06Q110.29 12.38 110.28 12.45L110.28 12.45L110.28 12.45Q110.25 12.60 110.05 12.70L110.05 12.70L110.05 12.70Q109.30 13.06 108.87 13.24L108.87 13.24L108.87 13.24Q108.44 13.43 107.79 13.57L107.79 13.57L107.79 13.57Q107.13 13.72 106.44 13.72L106.44 13.72L106.44 13.72Q105.22 13.72 104.24 13.43L104.24 13.43L104.24 13.43Q103.26 13.13 102.64 12.66L102.64 12.66L102.64 12.66Q102.02 12.18 101.60 11.54L101.60 11.54L101.60 11.54Q101.18 10.91 101.01 10.25L101.01 10.25L101.01 10.25Q100.84 9.60 100.84 8.90ZM118.19 13.33L118.19 13.33L118.19 13.33Q118.19 13.13 118.40 13.06L118.40 13.06L118.40 13.06Q118.85 12.89 119.18 12.31L119.18 12.31L119.18 12.31Q119.52 11.73 120.85 8.83L120.85 8.83L120.85 8.83Q122.22 5.87 123.27 3.63L123.27 3.63L123.27 3.63Q123.37 3.42 123.45 3.36L123.45 3.36L123.45 3.36Q123.52 3.30 123.69 3.30L123.69 3.30L123.69 3.30Q123.82 3.30 123.86 3.36L123.86 3.36L123.86 3.36Q123.90 3.42 124.04 3.82L124.04 3.82L124.04 3.82Q124.12 4.06 124.19 4.23L124.19 4.23L124.19 4.23Q124.25 4.40 124.39 4.77L124.39 4.77L124.39 4.77Q124.53 5.15 124.70 5.56L124.70 5.56L124.70 5.56Q125.15 6.66 126.25 9.22L126.25 9.22L126.25 9.22Q127.34 11.77 127.44 11.98L127.44 11.98L127.44 11.98Q127.68 12.46 127.97 12.71L127.97 12.71L127.97 12.71Q128.27 12.95 128.49 12.97L128.49 12.97L128.49 12.97Q128.70 12.99 128.85 13.04L128.85 13.04L128.85 13.04Q129.00 13.09 129.00 13.26L129.00 13.26L129.00 13.26Q129.00 13.47 128.62 13.47L128.62 13.47L128.62 13.47Q128.46 13.47 128.02 13.43L128.02 13.43L128.02 13.43Q127.57 13.38 127.36 13.38L127.36 13.38L127.36 13.38Q127.09 13.38 126.67 13.41L126.67 13.41L126.67 13.41Q126.25 13.44 126.06 13.44L126.06 13.44L126.06 13.44Q125.62 13.44 125.50 13.40L125.50 13.40L125.50 13.40Q125.38 13.37 125.38 13.24L125.38 13.24L125.38 13.24Q125.38 13.15 125.50 13.08L125.50 13.08L125.50 13.08Q125.61 13.02 125.73 13.00L125.73 13.00L125.73 13.00Q125.86 12.98 125.97 12.87L125.97 12.87L125.97 12.87Q126.08 12.77 126.08 12.59L126.08 12.59L126.08 12.59Q126.08 12.28 125.73 11.33L125.73 11.33L125.73 11.33Q125.38 10.37 125.15 9.93L125.15 9.93L125.15 9.93Q125.02 9.69 124.57 9.69L124.57 9.69L124.57 9.69Q124.50 9.69 123.96 9.70L123.96 9.70L123.96 9.70Q123.41 9.72 122.88 9.72L122.88 9.72L122.14 9.72L122.14 9.72Q121.51 9.72 121.34 9.79L121.34 9.79L121.34 9.79Q121.18 9.86 121.06 10.12L121.06 10.12L121.06 10.12Q120.97 10.30 120.78 10.70L120.78 10.70L120.78 10.70Q120.58 11.10 120.51 11.26L120.51 11.26L120.51 11.26Q120.44 11.41 120.34 11.65L120.34 11.65L120.34 11.65Q120.23 11.90 120.20 12.05L120.20 12.05L120.20 12.05Q120.16 12.19 120.16 12.31L120.16 12.31L120.16 12.31Q120.16 12.63 120.32 12.80L120.32 12.80L120.32 12.80Q120.48 12.96 120.68 12.98L120.68 12.98L120.68 12.98Q120.88 13.01 121.04 13.06L121.04 13.06L121.04 13.06Q121.20 13.12 121.20 13.26L121.20 13.26L121.20 13.26Q121.20 13.36 121.16 13.40L121.16 13.40L121.16 13.40Q121.11 13.45 120.96 13.45L120.96 13.45L120.96 13.45Q120.88 13.45 120.48 13.45L120.48 13.45L120.48 13.45Q120.08 13.44 119.80 13.44L119.80 13.44L119.80 13.44Q119.49 13.44 119.11 13.47L119.11 13.47L119.11 13.47Q118.72 13.50 118.59 13.50L118.59 13.50L118.59 13.50Q118.19 13.50 118.19 13.33ZM121.70 8.71L121.70 8.71L121.70 8.71Q121.70 8.89 121.83 8.93L121.83 8.93L121.83 8.93Q121.95 8.97 122.42 8.97L122.42 8.97L122.85 8.97L124.18 8.96L124.18 8.96Q124.73 8.96 124.73 8.74L124.73 8.74L124.73 8.74Q124.73 8.55 124.04 7.01L124.04 7.01L124.04 7.01Q123.35 5.46 123.17 5.46L123.17 5.46L123.17 5.46Q123.05 5.46 122.37 7.01L122.37 7.01L122.37 7.01Q121.70 8.55 121.70 8.71ZM136.56 3.77L136.56 3.77L136.56 3.77Q136.56 3.68 136.65 3.60L136.65 3.60L136.65 3.60Q136.75 3.53 136.91 3.53L136.91 3.53L136.91 3.53Q136.99 3.53 137.19 3.54L137.19 3.54L137.19 3.54Q137.38 3.54 137.44 3.54L137.44 3.54L137.44 3.54Q137.65 3.54 137.83 3.53L137.83 3.53L137.83 3.53Q138.01 3.51 138.12 3.51L138.12 3.51L138.12 3.51Q138.25 3.51 138.42 3.59L138.42 3.59L138.42 3.59Q138.59 3.67 138.61 3.75L138.61 3.75L138.61 3.75Q138.64 3.79 138.77 3.94L138.77 3.94L138.77 3.94Q138.89 4.09 139.10 4.33L139.10 4.33L139.10 4.33Q139.31 4.56 139.48 4.79L139.48 4.79L139.48 4.79Q141.39 7.27 144.58 10.77L144.58 10.77L144.58 10.77Q144.66 10.86 144.78 10.99L144.78 10.99L144.78 10.99Q144.90 11.12 144.95 11.18L144.95 11.18L144.95 11.18Q145.00 11.24 145.05 11.30L145.05 11.30L145.05 11.30Q145.11 11.35 145.15 11.38L145.15 11.38L145.15 11.38Q145.18 11.40 145.21 11.40L145.21 11.40L145.21 11.40Q145.35 11.40 145.35 10.53L145.35 10.53L145.35 8.89L145.35 8.89Q145.35 7.95 145.34 7.31L145.34 7.31L145.34 7.31Q145.33 6.66 145.33 6.38L145.33 6.38L145.33 6.38Q145.32 6.09 145.32 6.02L145.32 6.02L145.32 5.92L145.32 5.92Q145.32 5.45 145.26 5.11L145.26 5.11L145.26 5.11Q145.19 4.77 145.11 4.59L145.11 4.59L145.11 4.59Q145.03 4.41 144.87 4.28L144.87 4.28L144.87 4.28Q144.70 4.16 144.59 4.12L144.59 4.12L144.59 4.12Q144.48 4.09 144.27 4.05L144.27 4.05L144.27 4.05Q144.06 4.00 143.98 3.98L143.98 3.98L143.98 3.98Q143.70 3.89 143.70 3.74L143.70 3.74L143.70 3.74Q143.70 3.53 143.96 3.53L143.96 3.53L143.96 3.53Q144.05 3.53 144.63 3.54L144.63 3.54L144.63 3.54Q145.22 3.54 145.29 3.54L145.29 3.54L145.29 3.54Q145.63 3.54 146.04 3.53L146.04 3.53L146.04 3.53Q146.45 3.51 146.55 3.51L146.55 3.51L146.55 3.51Q146.79 3.51 146.88 3.56L146.88 3.56L146.88 3.56Q146.97 3.61 146.97 3.75L146.97 3.75L146.97 3.75Q146.97 3.81 146.90 3.86L146.90 3.86L146.90 3.86Q146.82 3.91 146.73 3.94L146.73 3.94L146.73 3.94Q146.65 3.98 146.57 4.00L146.57 4.00L146.48 4.03L146.48 4.03Q146.02 4.28 146.02 5.61L146.02 5.61L146.02 6.15L146.02 6.15Q146.02 7.21 145.94 9.83L145.94 9.83L145.94 9.83Q145.87 12.46 145.87 13.08L145.87 13.08L145.87 13.36L145.87 13.36Q145.87 13.68 145.67 13.68L145.67 13.68L145.67 13.68Q145.54 13.68 145.45 13.58L145.45 13.58L145.45 13.58Q140.80 8.19 139.90 7.17L139.90 7.17L139.90 7.17Q138.99 6.16 138.89 6.16L138.89 6.16L138.89 6.16Q138.75 6.16 138.75 7.11L138.75 7.11L138.75 7.11Q138.75 8.44 138.70 9.97L138.70 9.97L138.70 9.97Q138.64 11.51 138.64 11.65L138.64 11.65L138.64 11.65Q138.64 12.28 138.86 12.61L138.86 12.61L138.86 12.61Q139.08 12.94 139.33 12.98L139.33 12.98L139.33 12.98Q139.58 13.02 139.80 13.07L139.80 13.07L139.80 13.07Q140.01 13.12 140.01 13.26L140.01 13.26L140.01 13.26Q140.01 13.41 139.97 13.45L139.97 13.45L139.97 13.45Q139.92 13.50 139.79 13.50L139.79 13.50L139.79 13.50Q139.69 13.50 139.35 13.48L139.35 13.48L139.35 13.48Q139.01 13.47 138.29 13.47L138.29 13.47L138.29 13.47Q138.17 13.47 137.77 13.48L137.77 13.48L137.77 13.48Q137.38 13.50 137.10 13.50L137.10 13.50L137.10 13.50Q136.79 13.50 136.79 13.27L136.79 13.27L136.79 13.27Q136.79 13.15 136.98 13.11L136.98 13.11L136.98 13.11Q137.16 13.08 137.42 12.89L137.42 12.89L137.42 12.89Q137.69 12.71 137.83 12.21L137.83 12.21L137.83 12.21Q137.91 11.89 138.04 9.60L138.04 9.60L138.04 9.60Q138.17 7.32 138.17 6.45L138.17 6.45L138.17 6.45Q138.17 5.25 137.83 4.65L137.83 4.65L137.83 4.65Q137.49 4.06 136.74 3.98L136.74 3.98L136.74 3.98Q136.56 3.96 136.56 3.77ZM155.23 4.35L155.23 4.35L155.23 4.35Q155.23 4.27 155.61 3.89L155.61 3.89L155.61 3.89Q155.64 3.86 155.76 3.72L155.76 3.72L155.76 3.72Q155.88 3.57 155.97 3.51L155.97 3.51L155.97 3.51Q156.06 3.46 156.17 3.46L156.17 3.46L156.17 3.46Q156.21 3.46 156.31 3.51L156.31 3.51L156.31 3.51Q156.41 3.56 156.55 3.68L156.55 3.68L156.55 3.68Q156.69 3.81 156.81 3.98L156.81 3.98L156.81 3.98Q156.94 4.14 157.02 4.42L157.02 4.42L157.02 4.42Q157.11 4.70 157.11 5.03L157.11 5.03L157.11 5.03Q157.11 5.61 156.91 6.12L156.91 6.12L156.91 6.12Q156.72 6.62 156.45 6.89L156.45 6.89L156.45 6.89Q156.18 7.17 155.95 7.31L155.95 7.31L155.95 7.31Q155.72 7.46 155.60 7.46L155.60 7.46L155.60 7.46Q155.53 7.46 155.47 7.40L155.47 7.40L155.47 7.40Q155.41 7.34 155.41 7.29L155.41 7.29L155.41 7.29Q155.41 7.21 155.53 7.10L155.53 7.10L155.53 7.10Q155.65 7.00 155.81 6.88L155.81 6.88L155.81 6.88Q155.96 6.76 156.08 6.50L156.08 6.50L156.08 6.50Q156.20 6.23 156.20 5.87L156.20 5.87L156.20 5.87Q156.20 5.49 156.04 5.23L156.04 5.23L156.04 5.23Q155.89 4.97 155.72 4.87L155.72 4.87L155.72 4.87Q155.54 4.77 155.39 4.65L155.39 4.65L155.39 4.65Q155.23 4.52 155.23 4.35ZM165.42 5.32L165.42 5.32L165.42 5.32Q165.42 4.76 165.56 3.88L165.56 3.88L165.56 3.88Q165.56 3.85 165.57 3.78L165.57 3.78L165.57 3.78Q165.58 3.71 165.59 3.69L165.59 3.69L165.59 3.69Q165.59 3.67 165.60 3.62L165.60 3.62L165.60 3.62Q165.61 3.57 165.62 3.55L165.62 3.55L165.62 3.55Q165.63 3.53 165.66 3.49L165.66 3.49L165.66 3.49Q165.68 3.46 165.70 3.44L165.70 3.44L165.70 3.44Q165.73 3.43 165.77 3.42L165.77 3.42L165.77 3.42Q165.82 3.40 165.87 3.39L165.87 3.39L165.87 3.39Q165.93 3.39 166.00 3.39L166.00 3.39L166.00 3.39Q166.22 3.39 167.18 3.44L167.18 3.44L167.18 3.44Q168.14 3.50 169.95 3.50L169.95 3.50L169.95 3.50Q173.03 3.50 174.26 3.43L174.26 3.43L174.26 3.43Q174.27 3.43 174.31 3.42L174.31 3.42L174.31 3.42Q174.34 3.42 174.36 3.42L174.36 3.42L174.36 3.42Q174.51 3.42 174.57 3.50L174.57 3.50L174.57 3.50Q174.62 3.58 174.62 3.65L174.62 3.65L174.62 3.65Q174.62 3.75 174.66 4.24L174.66 4.24L174.66 4.24Q174.71 4.73 174.71 4.79L174.71 4.79L174.71 4.79Q174.71 5.14 174.66 5.23L174.66 5.23L174.66 5.23Q174.62 5.32 174.48 5.32L174.48 5.32L174.48 5.32Q174.37 5.32 174.33 5.15L174.33 5.15L174.33 5.15Q174.22 4.75 174.13 4.60L174.13 4.60L174.13 4.60Q174.05 4.45 173.77 4.34L173.77 4.34L173.77 4.34Q173.49 4.23 172.91 4.23L172.91 4.23L171.09 4.23L171.09 4.23Q170.76 4.23 170.68 4.36L170.68 4.36L170.68 4.36Q170.60 4.49 170.60 5.12L170.60 5.12L170.60 5.81L170.60 5.81Q170.60 7.69 170.58 9.11L170.58 9.11L170.58 9.11Q170.56 10.54 170.56 10.93L170.56 10.93L170.56 10.93Q170.56 11.13 170.56 11.43L170.56 11.43L170.56 11.43Q170.55 11.73 170.55 11.84L170.55 11.84L170.55 11.84Q170.55 12.45 170.74 12.64L170.74 12.64L170.74 12.64Q170.93 12.81 171.15 12.90L171.15 12.90L171.15 12.90Q171.37 12.99 171.53 13.01L171.53 13.01L171.53 13.01Q171.70 13.02 171.81 13.08L171.81 13.08L171.81 13.08Q171.92 13.13 171.92 13.26L171.92 13.26L171.92 13.26Q171.92 13.41 171.85 13.45L171.85 13.45L171.85 13.45Q171.78 13.50 171.58 13.50L171.58 13.50L171.58 13.50Q171.42 13.50 170.84 13.44L170.84 13.44L170.84 13.44Q170.27 13.38 170.03 13.38L170.03 13.38L170.03 13.38Q169.86 13.38 169.35 13.43L169.35 13.43L169.35 13.43Q168.84 13.48 168.60 13.48L168.60 13.48L168.60 13.48Q168.08 13.48 168.08 13.26L168.08 13.26L168.08 13.26Q168.08 13.12 168.17 13.07L168.17 13.07L168.17 13.07Q168.25 13.02 168.50 12.98L168.50 12.98L168.50 12.98Q168.74 12.95 168.81 12.94L168.81 12.94L168.81 12.94Q169.29 12.82 169.34 12.38L169.34 12.38L169.34 12.38Q169.48 11.14 169.48 7.08L169.48 7.08L169.47 4.58L169.47 4.58Q169.47 4.31 169.32 4.25L169.32 4.25L169.32 4.25Q169.16 4.19 168.41 4.19L168.41 4.19L168.41 4.19Q167.43 4.19 166.93 4.24L166.93 4.24L166.93 4.24Q166.43 4.30 166.35 4.35L166.35 4.35L166.35 4.35Q166.26 4.40 166.15 4.54L166.15 4.54L166.15 4.54Q166.03 4.70 165.95 4.91L165.95 4.91L165.95 4.91Q165.87 5.11 165.85 5.24L165.85 5.24L165.85 5.24Q165.83 5.38 165.77 5.47L165.77 5.47L165.77 5.47Q165.70 5.56 165.58 5.56L165.58 5.56L165.58 5.56Q165.42 5.56 165.42 5.32ZM192.25 3.68L192.25 3.68L192.25 3.68Q192.25 3.64 192.27 3.60L192.27 3.60L192.27 3.60Q192.29 3.56 192.38 3.50L192.38 3.50L192.38 3.50Q192.47 3.44 192.61 3.44L192.61 3.44L192.99 3.44L192.99 3.44Q193.33 3.44 194.08 3.49L194.08 3.49L194.08 3.49Q194.82 3.53 196.03 3.53L196.03 3.53L196.03 3.53Q197.02 3.53 197.79 3.49L197.79 3.49L197.79 3.49Q198.56 3.46 199.21 3.46L199.21 3.46L199.21 3.46Q199.44 3.46 199.44 3.79L199.44 3.79L199.44 3.79Q199.44 3.92 199.42 4.11L199.42 4.11L199.42 4.11Q199.39 4.30 199.33 4.61L199.33 4.61L199.33 4.61Q199.28 4.93 199.25 5.22L199.25 5.22L199.25 5.22Q199.22 5.50 199.04 5.50L199.04 5.50L199.04 5.50Q198.84 5.50 198.84 5.22L198.84 5.22L198.84 5.22Q198.84 4.30 198.20 4.26L198.20 4.26L198.20 4.26Q196.08 4.09 195.68 4.09L195.68 4.09L195.68 4.09Q195.05 4.09 194.90 4.24L194.90 4.24L194.90 4.24Q194.75 4.40 194.74 4.87L194.74 4.87L194.74 4.87Q194.74 4.94 194.74 4.98L194.74 4.98L194.74 4.98Q194.70 5.74 194.70 7.32L194.70 7.32L194.70 7.32Q194.70 8.01 194.95 8.02L194.95 8.02L194.95 8.02Q195.02 8.02 195.14 8.03L195.14 8.03L195.14 8.03Q195.26 8.04 195.30 8.04L195.30 8.04L195.30 8.04Q195.40 8.04 195.59 8.03L195.59 8.03L195.59 8.03Q195.79 8.02 195.90 8.02L195.90 8.02L196.34 8.02L196.34 8.02Q197.18 8.02 197.45 7.97L197.45 7.97L197.45 7.97Q197.72 7.92 197.95 7.77L197.95 7.77L197.95 7.77Q198.07 7.69 198.14 7.57L198.14 7.57L198.14 7.57Q198.21 7.46 198.24 7.31L198.24 7.31L198.24 7.31Q198.27 7.15 198.31 7.08L198.31 7.08L198.31 7.08Q198.35 7.01 198.48 7.01L198.48 7.01L198.48 7.01Q198.60 7.01 198.63 7.06L198.63 7.06L198.63 7.06Q198.66 7.10 198.66 7.24L198.66 7.24L198.66 7.24Q198.66 7.34 198.60 7.73L198.60 7.73L198.60 7.73Q198.53 8.12 198.53 8.40L198.53 8.40L198.53 8.40Q198.53 8.67 198.58 9.05L198.58 9.05L198.58 9.05Q198.63 9.44 198.63 9.55L198.63 9.55L198.63 9.55Q198.63 9.77 198.58 9.83L198.58 9.83L198.58 9.83Q198.53 9.90 198.44 9.90L198.44 9.90L198.44 9.90Q198.20 9.90 198.14 9.55L198.14 9.55L198.14 9.55Q198.14 9.52 198.13 9.42L198.13 9.42L198.13 9.42Q198.11 9.32 198.11 9.28L198.11 9.28L198.11 9.28Q198.10 9.24 198.07 9.16L198.07 9.16L198.07 9.16Q198.04 9.09 198.02 9.04L198.02 9.04L198.02 9.04Q197.99 9.00 197.95 8.95L197.95 8.95L197.95 8.95Q197.90 8.90 197.83 8.88L197.83 8.88L197.83 8.88Q197.64 8.79 197.13 8.74L197.13 8.74L197.13 8.74Q196.63 8.68 196.48 8.68L196.48 8.68L195.26 8.68L195.26 8.68Q194.68 8.68 194.68 8.95L194.68 8.95L194.68 8.95Q194.68 9.35 194.67 9.96L194.67 9.96L194.67 9.96Q194.66 10.57 194.66 10.96L194.66 10.96L194.66 10.96Q194.66 11.06 194.65 11.25L194.65 11.25L194.65 11.25Q194.64 11.44 194.64 11.52L194.64 11.52L194.64 11.52Q194.64 11.80 194.70 12.08L194.70 12.08L194.70 12.08Q194.75 12.36 195.03 12.67L195.03 12.67L195.03 12.67Q195.30 12.98 195.76 12.98L195.76 12.98L195.76 12.98Q196.18 12.98 196.18 13.23L196.18 13.23L196.18 13.23Q196.18 13.27 196.15 13.33L196.15 13.33L196.15 13.33Q196.13 13.38 196.02 13.44L196.02 13.44L196.02 13.44Q195.92 13.50 195.75 13.50L195.75 13.50L195.75 13.50Q195.52 13.50 195.04 13.44L195.04 13.44L195.04 13.44Q194.56 13.38 194.39 13.38L194.39 13.38L194.39 13.38Q194.00 13.38 193.52 13.43L193.52 13.43L193.52 13.43Q193.03 13.47 192.70 13.47L192.70 13.47L192.70 13.47Q192.42 13.47 192.42 13.31L192.42 13.31L192.42 13.31Q192.42 13.13 192.48 13.09L192.48 13.09L192.48 13.09Q192.54 13.05 193.02 12.88L193.02 12.88L193.02 12.88Q193.38 12.75 193.47 12.13L193.47 12.13L193.47 12.13Q193.55 11.51 193.56 9.60L193.56 9.60L193.56 9.60Q193.56 8.86 193.56 8.44L193.56 8.44L193.56 8.44Q193.56 8.06 193.59 7.26L193.59 7.26L193.59 7.26Q193.61 6.45 193.61 6.01L193.61 6.01L193.61 5.19L193.61 5.19Q193.61 4.27 192.95 3.96L192.95 3.96L192.95 3.96Q192.85 3.92 192.71 3.90L192.71 3.90L192.71 3.90Q192.57 3.88 192.48 3.88L192.48 3.88L192.48 3.88Q192.39 3.88 192.32 3.83L192.32 3.83L192.32 3.83Q192.25 3.78 192.25 3.68ZM207.00 3.71L207.00 3.71L207.00 3.71Q207.00 3.50 207.40 3.50L207.40 3.50L207.40 3.50Q207.54 3.50 208.04 3.53L208.04 3.53L208.04 3.53Q208.54 3.56 208.98 3.56L208.98 3.56L208.98 3.56Q209.24 3.56 209.49 3.54L209.49 3.54L209.49 3.54Q209.73 3.53 210.21 3.53L210.21 3.53L210.21 3.53Q210.59 3.53 210.59 3.72L210.59 3.72L210.59 3.72Q210.59 3.84 209.94 4.10L209.94 4.10L209.94 4.10Q209.50 4.28 209.50 5.71L209.50 5.71L209.50 5.71Q209.50 7.60 209.48 9.05L209.48 9.05L209.48 9.05Q209.45 10.50 209.45 10.89L209.45 10.89L209.45 10.89Q209.45 12.07 209.80 12.59L209.80 12.59L209.80 12.59Q210.11 13.02 210.48 13.02L210.48 13.02L210.48 13.02Q210.50 13.02 210.62 13.03L210.62 13.03L210.62 13.03Q210.73 13.03 210.76 13.03L210.76 13.03L210.76 13.03Q210.85 13.03 210.95 13.08L210.95 13.08L210.95 13.08Q211.05 13.13 211.05 13.19L211.05 13.19L211.05 13.19Q211.05 13.34 210.97 13.39L210.97 13.39L210.97 13.39Q210.90 13.44 210.70 13.44L210.70 13.44L210.70 13.44Q210.28 13.44 209.92 13.41L209.92 13.41L209.92 13.41Q209.57 13.38 209.37 13.38L209.37 13.38L209.37 13.38Q208.98 13.38 208.52 13.42L208.52 13.42L208.52 13.42Q208.05 13.45 207.83 13.45L207.83 13.45L207.83 13.45Q207.20 13.45 207.20 13.24L207.20 13.24L207.20 13.24Q207.20 13.12 207.33 13.07L207.33 13.07L207.33 13.07Q207.47 13.02 207.63 13.00L207.63 13.00L207.63 13.00Q207.80 12.98 207.98 12.82L207.98 12.82L207.98 12.82Q208.17 12.66 208.24 12.35L208.24 12.35L208.24 12.35Q208.26 12.25 208.33 10.76L208.33 10.76L208.33 10.76Q208.39 9.27 208.39 8.61L208.39 8.61L208.39 7.81L208.39 7.81Q208.39 7.63 208.40 7.12L208.40 7.12L208.40 7.12Q208.40 6.61 208.40 6.30L208.40 6.30L208.40 5.66L208.40 5.66Q208.40 5.04 208.35 4.63L208.35 4.63L208.35 4.63Q208.31 4.30 207.98 4.12L207.98 4.12L207.98 4.12Q207.65 3.93 207.30 3.92L207.30 3.92L207.30 3.92Q207.00 3.91 207.00 3.71ZM218.60 3.77L218.60 3.77L218.60 3.77Q218.60 3.68 218.69 3.60L218.69 3.60L218.69 3.60Q218.79 3.53 218.95 3.53L218.95 3.53L218.95 3.53Q219.03 3.53 219.23 3.54L219.23 3.54L219.23 3.54Q219.42 3.54 219.48 3.54L219.48 3.54L219.48 3.54Q219.69 3.54 219.87 3.53L219.87 3.53L219.87 3.53Q220.05 3.51 220.16 3.51L220.16 3.51L220.16 3.51Q220.29 3.51 220.46 3.59L220.46 3.59L220.46 3.59Q220.63 3.67 220.65 3.75L220.65 3.75L220.65 3.75Q220.68 3.79 220.81 3.94L220.81 3.94L220.81 3.94Q220.93 4.09 221.14 4.33L221.14 4.33L221.14 4.33Q221.35 4.56 221.52 4.79L221.52 4.79L221.52 4.79Q223.43 7.27 226.62 10.77L226.62 10.77L226.62 10.77Q226.70 10.86 226.82 10.99L226.82 10.99L226.82 10.99Q226.94 11.12 226.99 11.18L226.99 11.18L226.99 11.18Q227.04 11.24 227.09 11.30L227.09 11.30L227.09 11.30Q227.15 11.35 227.19 11.38L227.19 11.38L227.19 11.38Q227.22 11.40 227.25 11.40L227.25 11.40L227.25 11.40Q227.39 11.40 227.39 10.53L227.39 10.53L227.39 8.89L227.39 8.89Q227.39 7.95 227.38 7.31L227.38 7.31L227.38 7.31Q227.37 6.66 227.37 6.38L227.37 6.38L227.37 6.38Q227.36 6.09 227.36 6.02L227.36 6.02L227.36 5.92L227.36 5.92Q227.36 5.45 227.30 5.11L227.30 5.11L227.30 5.11Q227.23 4.77 227.15 4.59L227.15 4.59L227.15 4.59Q227.07 4.41 226.91 4.28L226.91 4.28L226.91 4.28Q226.74 4.16 226.63 4.12L226.63 4.12L226.63 4.12Q226.52 4.09 226.31 4.05L226.31 4.05L226.31 4.05Q226.10 4.00 226.02 3.98L226.02 3.98L226.02 3.98Q225.74 3.89 225.74 3.74L225.74 3.74L225.74 3.74Q225.74 3.53 226.00 3.53L226.00 3.53L226.00 3.53Q226.09 3.53 226.67 3.54L226.67 3.54L226.67 3.54Q227.26 3.54 227.33 3.54L227.33 3.54L227.33 3.54Q227.67 3.54 228.08 3.53L228.08 3.53L228.08 3.53Q228.49 3.51 228.59 3.51L228.59 3.51L228.59 3.51Q228.83 3.51 228.92 3.56L228.92 3.56L228.92 3.56Q229.01 3.61 229.01 3.75L229.01 3.75L229.01 3.75Q229.01 3.81 228.94 3.86L228.94 3.86L228.94 3.86Q228.86 3.91 228.77 3.94L228.77 3.94L228.77 3.94Q228.69 3.98 228.61 4.00L228.61 4.00L228.52 4.03L228.52 4.03Q228.06 4.28 228.06 5.61L228.06 5.61L228.06 6.15L228.06 6.15Q228.06 7.21 227.98 9.83L227.98 9.83L227.98 9.83Q227.91 12.46 227.91 13.08L227.91 13.08L227.91 13.36L227.91 13.36Q227.91 13.68 227.71 13.68L227.71 13.68L227.71 13.68Q227.58 13.68 227.49 13.58L227.49 13.58L227.49 13.58Q222.84 8.19 221.94 7.17L221.94 7.17L221.94 7.17Q221.03 6.16 220.93 6.16L220.93 6.16L220.93 6.16Q220.79 6.16 220.79 7.11L220.79 7.11L220.79 7.11Q220.79 8.44 220.74 9.97L220.74 9.97L220.74 9.97Q220.68 11.51 220.68 11.65L220.68 11.65L220.68 11.65Q220.68 12.28 220.90 12.61L220.90 12.61L220.90 12.61Q221.12 12.94 221.37 12.98L221.37 12.98L221.37 12.98Q221.62 13.02 221.84 13.07L221.84 13.07L221.84 13.07Q222.05 13.12 222.05 13.26L222.05 13.26L222.05 13.26Q222.05 13.41 222.01 13.45L222.01 13.45L222.01 13.45Q221.96 13.50 221.83 13.50L221.83 13.50L221.83 13.50Q221.73 13.50 221.39 13.48L221.39 13.48L221.39 13.48Q221.05 13.47 220.33 13.47L220.33 13.47L220.33 13.47Q220.21 13.47 219.81 13.48L219.81 13.48L219.81 13.48Q219.42 13.50 219.14 13.50L219.14 13.50L219.14 13.50Q218.83 13.50 218.83 13.27L218.83 13.27L218.83 13.27Q218.83 13.15 219.02 13.11L219.02 13.11L219.02 13.11Q219.20 13.08 219.46 12.89L219.46 12.89L219.46 12.89Q219.73 12.71 219.87 12.21L219.87 12.21L219.87 12.21Q219.95 11.89 220.08 9.60L220.08 9.60L220.08 9.60Q220.21 7.32 220.21 6.45L220.21 6.45L220.21 6.45Q220.21 5.25 219.87 4.65L219.87 4.65L219.87 4.65Q219.53 4.06 218.78 3.98L218.78 3.98L218.78 3.98Q218.60 3.96 218.60 3.77ZM236.77 3.64L236.77 3.64L236.77 3.64Q236.77 3.51 236.89 3.49L236.89 3.49L236.89 3.49Q237.01 3.47 237.48 3.47L237.48 3.47L238.70 3.47L238.70 3.47Q239.05 3.47 239.99 3.44L239.99 3.44L239.99 3.44Q240.93 3.42 241.43 3.42L241.43 3.42L241.43 3.42Q242.40 3.42 243.36 3.71L243.36 3.71L243.36 3.71Q244.33 4.00 245.14 4.56L245.14 4.56L245.14 4.56Q245.95 5.11 246.46 6.00L246.46 6.00L246.46 6.00Q246.96 6.89 246.96 7.98L246.96 7.98L246.96 7.98Q246.96 8.96 246.83 9.68L246.83 9.68L246.83 9.68Q246.69 10.40 246.39 10.93L246.39 10.93L246.39 10.93Q246.08 11.45 245.77 11.78L245.77 11.78L245.77 11.78Q245.46 12.11 244.93 12.56L244.93 12.56L244.93 12.56Q244.51 12.89 243.71 13.19L243.71 13.19L243.71 13.19Q242.91 13.48 242.07 13.48L242.07 13.48L242.07 13.48Q241.99 13.48 240.65 13.45L240.65 13.45L240.65 13.45Q239.30 13.41 238.71 13.41L238.71 13.41L238.71 13.41Q238.22 13.41 237.80 13.45L237.80 13.45L237.80 13.45Q237.38 13.48 237.31 13.48L237.31 13.48L237.31 13.48Q236.98 13.48 236.98 13.30L236.98 13.30L236.98 13.30Q236.98 13.19 237.03 13.14L237.03 13.14L237.03 13.14Q237.08 13.09 237.24 13.05L237.24 13.05L237.24 13.05Q237.40 13.01 237.47 12.98L237.47 12.98L237.47 12.98Q237.69 12.88 237.88 12.61L237.88 12.61L237.88 12.61Q238.07 12.33 238.07 12.07L238.07 12.07L238.07 12.07Q238.07 11.28 238.08 10.07L238.08 10.07L238.08 10.07Q238.08 8.85 238.08 8.27L238.08 8.27L238.08 8.27Q238.08 7.77 238.08 6.70L238.08 6.70L238.08 6.70Q238.07 5.63 238.07 4.72L238.07 4.72L238.07 4.72Q238.07 4.48 237.84 4.23L237.84 4.23L237.84 4.23Q237.61 3.99 237.33 3.98L237.33 3.98L237.33 3.98Q237.13 3.96 237.04 3.95L237.04 3.95L237.04 3.95Q236.95 3.93 236.86 3.86L236.86 3.86L236.86 3.86Q236.77 3.78 236.77 3.64ZM239.25 11.47L239.25 11.47L239.25 11.47Q239.25 11.73 239.25 11.90L239.25 11.90L239.25 11.90Q239.26 12.07 239.31 12.21L239.31 12.21L239.31 12.21Q239.36 12.35 239.39 12.40L239.39 12.40L239.39 12.40Q239.41 12.46 239.55 12.53L239.55 12.53L239.55 12.53Q239.69 12.60 239.77 12.62L239.77 12.62L239.77 12.62Q239.85 12.64 240.10 12.71L240.10 12.71L240.10 12.71Q240.35 12.78 240.52 12.82L240.52 12.82L240.52 12.82Q241.01 12.96 241.54 12.96L241.54 12.96L241.82 12.96L241.82 12.96Q242.77 12.96 243.45 12.69L243.45 12.69L243.45 12.69Q244.12 12.42 244.73 11.83L244.73 11.83L244.73 11.83Q245.77 10.84 245.77 8.61L245.77 8.61L245.77 8.61Q245.77 7.49 245.33 6.58L245.33 6.58L245.33 6.58Q244.89 5.67 244.17 5.13L244.17 5.13L244.17 5.13Q243.46 4.59 242.63 4.30L242.63 4.30L242.63 4.30Q241.81 4.02 240.97 4.02L240.97 4.02L240.97 4.02Q240.59 4.02 240.42 4.02L240.42 4.02L240.42 4.02Q240.24 4.02 240.01 4.05L240.01 4.05L240.01 4.05Q239.78 4.09 239.70 4.11L239.70 4.11L239.70 4.11Q239.62 4.13 239.51 4.25L239.51 4.25L239.51 4.25Q239.40 4.37 239.38 4.45L239.38 4.45L239.38 4.45Q239.36 4.54 239.32 4.78L239.32 4.78L239.32 4.78Q239.29 5.03 239.29 5.21L239.29 5.21L239.29 5.21Q239.29 5.39 239.29 5.80L239.29 5.80L239.29 5.80Q239.29 6.10 239.27 7.24L239.27 7.24L239.27 7.24Q239.26 8.39 239.26 8.48L239.26 8.48L239.26 8.48Q239.26 9.32 239.25 10.30L239.25 10.30L239.25 10.30Q239.25 11.28 239.25 11.47ZM264.84 3.71L264.84 3.71L264.84 3.71Q264.84 3.50 265.23 3.50L265.23 3.50L265.23 3.50Q265.37 3.50 265.87 3.53L265.87 3.53L265.87 3.53Q266.38 3.56 266.81 3.56L266.81 3.56L266.81 3.56Q267.08 3.56 267.32 3.54L267.32 3.54L267.32 3.54Q267.57 3.53 268.04 3.53L268.04 3.53L268.04 3.53Q268.42 3.53 268.42 3.72L268.42 3.72L268.42 3.72Q268.42 3.84 267.78 4.10L267.78 4.10L267.78 4.10Q267.33 4.28 267.33 5.71L267.33 5.71L267.33 5.71Q267.33 7.60 267.31 9.05L267.31 9.05L267.31 9.05Q267.29 10.50 267.29 10.89L267.29 10.89L267.29 10.89Q267.29 12.07 267.64 12.59L267.64 12.59L267.64 12.59Q267.95 13.02 268.31 13.02L268.31 13.02L268.31 13.02Q268.34 13.02 268.45 13.03L268.45 13.03L268.45 13.03Q268.56 13.03 268.59 13.03L268.59 13.03L268.59 13.03Q268.69 13.03 268.79 13.08L268.79 13.08L268.79 13.08Q268.88 13.13 268.88 13.19L268.88 13.19L268.88 13.19Q268.88 13.34 268.81 13.39L268.81 13.39L268.81 13.39Q268.73 13.44 268.53 13.44L268.53 13.44L268.53 13.44Q268.11 13.44 267.76 13.41L267.76 13.41L267.76 13.41Q267.40 13.38 267.20 13.38L267.20 13.38L267.20 13.38Q266.81 13.38 266.35 13.42L266.35 13.42L266.35 13.42Q265.89 13.45 265.66 13.45L265.66 13.45L265.66 13.45Q265.03 13.45 265.03 13.24L265.03 13.24L265.03 13.24Q265.03 13.12 265.17 13.07L265.17 13.07L265.17 13.07Q265.30 13.02 265.47 13.00L265.47 13.00L265.47 13.00Q265.64 12.98 265.82 12.82L265.82 12.82L265.82 12.82Q266.00 12.66 266.07 12.35L266.07 12.35L266.07 12.35Q266.10 12.25 266.16 10.76L266.16 10.76L266.16 10.76Q266.22 9.27 266.22 8.61L266.22 8.61L266.22 7.81L266.22 7.81Q266.22 7.63 266.23 7.12L266.23 7.12L266.23 7.12Q266.24 6.61 266.24 6.30L266.24 6.30L266.24 5.66L266.24 5.66Q266.24 5.04 266.18 4.63L266.18 4.63L266.18 4.63Q266.14 4.30 265.81 4.12L265.81 4.12L265.81 4.12Q265.48 3.93 265.13 3.92L265.13 3.92L265.13 3.92Q264.84 3.91 264.84 3.71ZM276.43 5.32L276.43 5.32L276.43 5.32Q276.43 4.76 276.57 3.88L276.57 3.88L276.57 3.88Q276.57 3.85 276.58 3.78L276.58 3.78L276.58 3.78Q276.58 3.71 276.59 3.69L276.59 3.69L276.59 3.69Q276.60 3.67 276.61 3.62L276.61 3.62L276.61 3.62Q276.61 3.57 276.63 3.55L276.63 3.55L276.63 3.55Q276.64 3.53 276.66 3.49L276.66 3.49L276.66 3.49Q276.68 3.46 276.71 3.44L276.71 3.44L276.71 3.44Q276.74 3.43 276.78 3.42L276.78 3.42L276.78 3.42Q276.82 3.40 276.88 3.39L276.88 3.39L276.88 3.39Q276.93 3.39 277.00 3.39L277.00 3.39L277.00 3.39Q277.23 3.39 278.19 3.44L278.19 3.44L278.19 3.44Q279.15 3.50 280.95 3.50L280.95 3.50L280.95 3.50Q284.03 3.50 285.26 3.43L285.26 3.43L285.26 3.43Q285.28 3.43 285.31 3.42L285.31 3.42L285.31 3.42Q285.35 3.42 285.36 3.42L285.36 3.42L285.36 3.42Q285.52 3.42 285.57 3.50L285.57 3.50L285.57 3.50Q285.63 3.58 285.63 3.65L285.63 3.65L285.63 3.65Q285.63 3.75 285.67 4.24L285.67 4.24L285.67 4.24Q285.71 4.73 285.71 4.79L285.71 4.79L285.71 4.79Q285.71 5.14 285.67 5.23L285.67 5.23L285.67 5.23Q285.63 5.32 285.49 5.32L285.49 5.32L285.49 5.32Q285.38 5.32 285.33 5.15L285.33 5.15L285.33 5.15Q285.22 4.75 285.14 4.60L285.14 4.60L285.14 4.60Q285.05 4.45 284.77 4.34L284.77 4.34L284.77 4.34Q284.49 4.23 283.92 4.23L283.92 4.23L282.10 4.23L282.10 4.23Q281.76 4.23 281.69 4.36L281.69 4.36L281.69 4.36Q281.61 4.49 281.61 5.12L281.61 5.12L281.61 5.81L281.61 5.81Q281.61 7.69 281.59 9.11L281.59 9.11L281.59 9.11Q281.57 10.54 281.57 10.93L281.57 10.93L281.57 10.93Q281.57 11.13 281.56 11.43L281.56 11.43L281.56 11.43Q281.55 11.73 281.55 11.84L281.55 11.84L281.55 11.84Q281.55 12.45 281.75 12.64L281.75 12.64L281.75 12.64Q281.93 12.81 282.16 12.90L282.16 12.90L282.16 12.90Q282.38 12.99 282.54 13.01L282.54 13.01L282.54 13.01Q282.70 13.02 282.81 13.08L282.81 13.08L282.81 13.08Q282.93 13.13 282.93 13.26L282.93 13.26L282.93 13.26Q282.93 13.41 282.86 13.45L282.86 13.45L282.86 13.45Q282.79 13.50 282.59 13.50L282.59 13.50L282.59 13.50Q282.42 13.50 281.85 13.44L281.85 13.44L281.85 13.44Q281.27 13.38 281.04 13.38L281.04 13.38L281.04 13.38Q280.87 13.38 280.36 13.43L280.36 13.43L280.36 13.43Q279.85 13.48 279.61 13.48L279.61 13.48L279.61 13.48Q279.09 13.48 279.09 13.26L279.09 13.26L279.09 13.26Q279.09 13.12 279.17 13.07L279.17 13.07L279.17 13.07Q279.26 13.02 279.50 12.98L279.50 12.98L279.50 12.98Q279.75 12.95 279.82 12.94L279.82 12.94L279.82 12.94Q280.29 12.82 280.35 12.38L280.35 12.38L280.35 12.38Q280.49 11.14 280.49 7.08L280.49 7.08L280.48 4.58L280.48 4.58Q280.48 4.31 280.32 4.25L280.32 4.25L280.32 4.25Q280.17 4.19 279.41 4.19L279.41 4.19L279.41 4.19Q278.43 4.19 277.94 4.24L277.94 4.24L277.94 4.24Q277.44 4.30 277.35 4.35L277.35 4.35L277.35 4.35Q277.27 4.40 277.16 4.54L277.16 4.54L277.16 4.54Q277.03 4.70 276.96 4.91L276.96 4.91L276.96 4.91Q276.88 5.11 276.86 5.24L276.86 5.24L276.86 5.24Q276.84 5.38 276.77 5.47L276.77 5.47L276.77 5.47Q276.71 5.56 276.58 5.56L276.58 5.56L276.58 5.56Q276.43 5.56 276.43 5.32ZM292.52 12.68L292.52 12.68L292.52 12.68Q292.52 12.61 292.56 12.54L292.56 12.54L292.56 12.54Q292.60 12.47 292.65 12.42L292.65 12.42L292.65 12.42Q292.70 12.38 292.80 12.29L292.80 12.29L292.80 12.29Q292.89 12.19 292.95 12.14L292.95 12.14L292.95 12.14Q292.99 12.10 293.06 12.00L293.06 12.00L293.06 12.00Q293.13 11.90 293.19 11.84L293.19 11.84L293.19 11.84Q293.24 11.79 293.33 11.74L293.33 11.74L293.33 11.74Q293.43 11.69 293.54 11.69L293.54 11.69L293.54 11.69Q293.61 11.69 293.82 11.86L293.82 11.86L293.82 11.86Q294.03 12.03 294.27 12.46L294.27 12.46L294.27 12.46Q294.50 12.89 294.50 13.44L294.50 13.44L294.50 13.44Q294.50 14.32 293.88 15.04L293.88 15.04L293.88 15.04Q293.26 15.76 292.88 15.76L292.88 15.76L292.88 15.76Q292.67 15.76 292.67 15.58L292.67 15.58L292.67 15.58Q292.67 15.48 292.80 15.36L292.80 15.36L292.80 15.36Q292.94 15.23 293.10 15.10L293.10 15.10L293.10 15.10Q293.27 14.97 293.40 14.71L293.40 14.71L293.40 14.71Q293.54 14.45 293.54 14.11L293.54 14.11L293.54 14.11Q293.54 13.83 293.41 13.62L293.41 13.62L293.41 13.62Q293.29 13.40 293.18 13.31L293.18 13.31L293.18 13.31Q293.08 13.22 292.75 12.98L292.75 12.98L292.75 12.98Q292.57 12.85 292.54 12.82L292.54 12.82L292.54 12.82Q292.52 12.78 292.52 12.68ZM312.52 3.71L312.52 3.71L312.52 3.71Q312.52 3.51 312.90 3.51L312.90 3.51L312.90 3.51Q312.98 3.51 313.44 3.54L313.44 3.54L313.44 3.54Q313.89 3.56 314.44 3.56L314.44 3.56L314.44 3.56Q314.83 3.56 315.22 3.54L315.22 3.54L315.22 3.54Q315.62 3.51 315.64 3.51L315.64 3.51L315.64 3.51Q315.77 3.51 315.81 3.55L315.81 3.55L315.81 3.55Q315.84 3.58 315.84 3.68L315.84 3.68L315.84 3.68Q315.84 3.77 315.54 3.92L315.54 3.92L315.54 3.92Q315.24 4.07 315.24 4.34L315.24 4.34L315.24 4.34Q315.24 4.47 315.29 4.65L315.29 4.65L315.29 4.65Q315.35 4.83 315.52 5.22L315.52 5.22L315.52 5.22Q315.69 5.61 315.88 6.03L315.88 6.03L315.88 6.03Q316.06 6.45 316.46 7.33L316.46 7.33L316.46 7.33Q316.85 8.20 317.23 9.07L317.23 9.07L317.23 9.07Q317.32 9.30 317.51 9.74L317.51 9.74L317.51 9.74Q317.70 10.18 317.82 10.46L317.82 10.46L317.82 10.46Q317.94 10.74 318.08 11.05L318.08 11.05L318.08 11.05Q318.22 11.37 318.31 11.52L318.31 11.52L318.31 11.52Q318.40 11.68 318.44 11.68L318.44 11.68L318.44 11.68Q318.50 11.68 318.89 10.81L318.89 10.81L318.89 10.81Q319.28 9.94 319.59 9.17L319.59 9.17L319.59 9.17Q319.65 9.04 319.73 8.89L319.73 8.89L319.73 8.89Q319.80 8.74 319.84 8.63L319.84 8.63L319.84 8.63Q319.87 8.53 319.87 8.41L319.87 8.41L319.87 8.41Q319.87 8.25 319.03 6.36L319.03 6.36L319.03 6.36Q318.19 4.48 317.95 4.21L317.95 4.21L317.95 4.21Q317.90 4.14 317.84 4.10L317.84 4.10L317.84 4.10Q317.79 4.06 317.74 4.02L317.74 4.02L317.74 4.02Q317.69 3.99 317.65 3.97L317.65 3.97L317.65 3.97Q317.62 3.95 317.56 3.94L317.56 3.94L317.56 3.94Q317.51 3.93 317.49 3.93L317.49 3.93L317.49 3.93Q317.46 3.93 317.40 3.93L317.40 3.93L317.40 3.93Q317.34 3.92 317.32 3.92L317.32 3.92L317.32 3.92Q316.93 3.88 316.85 3.84L316.85 3.84L316.85 3.84Q316.76 3.81 316.76 3.70L316.76 3.70L316.76 3.70Q316.76 3.50 317.17 3.50L317.17 3.50L317.17 3.50Q317.25 3.50 317.72 3.53L317.72 3.53L317.72 3.53Q318.18 3.56 318.71 3.56L318.71 3.56L318.71 3.56Q318.74 3.56 319.09 3.53L319.09 3.53L319.09 3.53Q319.44 3.50 319.63 3.50L319.63 3.50L319.63 3.50Q320.05 3.50 320.05 3.61L320.05 3.61L320.05 3.61Q320.05 3.70 319.90 3.78L319.90 3.78L319.90 3.78Q319.75 3.86 319.60 4.00L319.60 4.00L319.60 4.00Q319.45 4.13 319.45 4.33L319.45 4.33L319.45 4.33Q319.45 4.59 319.89 5.57L319.89 5.57L319.89 5.57Q319.91 5.63 320.08 6.03L320.08 6.03L320.08 6.03Q320.24 6.44 320.36 6.71L320.36 6.71L320.36 6.71Q320.49 6.99 320.54 6.99L320.54 6.99L320.54 6.99Q320.66 6.99 321.10 5.76L321.10 5.76L321.10 5.76Q321.55 4.54 321.55 4.31L321.55 4.31L321.55 4.31Q321.55 4.06 321.34 3.96L321.34 3.96L321.34 3.96Q321.13 3.85 320.92 3.80L320.92 3.80L320.92 3.80Q320.71 3.75 320.71 3.64L320.71 3.64L320.71 3.64Q320.71 3.49 321.02 3.49L321.02 3.49L321.02 3.49Q321.10 3.49 321.44 3.50L321.44 3.50L321.44 3.50Q321.78 3.51 321.92 3.51L321.92 3.51L322.15 3.51L322.15 3.51Q322.35 3.51 322.90 3.47L322.90 3.47L323.02 3.47L323.02 3.47Q323.20 3.47 323.20 3.61L323.20 3.61L323.20 3.61Q323.20 3.75 322.94 3.84L322.94 3.84L322.94 3.84Q322.67 3.92 322.57 4.02L322.57 4.02L322.57 4.02Q322.35 4.24 322.18 4.66L322.18 4.66L322.18 4.66Q321.89 5.38 321.48 6.33L321.48 6.33L321.48 6.33Q321.06 7.31 320.99 7.50L320.99 7.50L320.99 7.50Q320.92 7.70 320.92 7.85L320.92 7.85L320.92 7.85Q320.92 7.97 321.78 9.87L321.78 9.87L321.78 9.87Q322.63 11.77 322.78 11.77L322.78 11.77L322.78 11.77Q322.95 11.77 324.42 8.24L324.42 8.24L324.42 8.24Q325.88 4.70 325.88 4.35L325.88 4.35L325.88 4.35Q325.88 4.13 325.72 4.01L325.72 4.01L325.72 4.01Q325.56 3.89 325.36 3.87L325.36 3.87L325.36 3.87Q325.16 3.85 325.00 3.80L325.00 3.80L325.00 3.80Q324.84 3.75 324.84 3.64L324.84 3.64L324.84 3.64Q324.84 3.54 324.88 3.52L324.88 3.52L324.88 3.52Q324.93 3.50 325.11 3.50L325.11 3.50L325.11 3.50Q325.15 3.50 325.43 3.51L325.43 3.51L325.43 3.51Q325.71 3.51 325.99 3.51L325.99 3.51L325.99 3.51Q326.24 3.51 326.56 3.50L326.56 3.50L326.56 3.50Q326.87 3.49 327.24 3.49L327.24 3.49L327.24 3.49Q327.52 3.49 327.52 3.68L327.52 3.68L327.52 3.68Q327.52 3.78 327.44 3.84L327.44 3.84L327.44 3.84Q327.36 3.89 327.21 3.98L327.21 3.98L327.21 3.98Q327.05 4.06 326.94 4.17L326.94 4.17L326.94 4.17Q326.87 4.24 326.82 4.31L326.82 4.31L326.82 4.31Q326.77 4.38 326.72 4.49L326.72 4.49L326.72 4.49Q326.66 4.59 326.63 4.66L326.63 4.66L326.63 4.66Q326.59 4.73 326.52 4.91L326.52 4.91L326.52 4.91Q326.44 5.08 326.40 5.18L326.40 5.18L326.40 5.18Q325.32 7.59 323.99 10.58L323.99 10.58L323.99 10.58Q322.92 13.01 322.73 13.41L322.73 13.41L322.73 13.41Q322.53 13.82 322.42 13.82L322.42 13.82L322.42 13.82Q322.35 13.82 322.25 13.64L322.25 13.64L322.25 13.64Q322.15 13.47 321.98 13.05L321.98 13.05L321.98 13.05Q321.80 12.64 321.78 12.57L321.78 12.57L321.78 12.57Q321.64 12.26 321.41 11.72L321.41 11.72L321.41 11.72Q321.17 11.17 321.01 10.79L321.01 10.79L321.01 10.79Q320.85 10.42 320.68 10.02L320.68 10.02L320.68 10.02Q320.52 9.63 320.40 9.43L320.40 9.43L320.40 9.43Q320.29 9.23 320.25 9.23L320.25 9.23L320.25 9.23Q320.11 9.23 319.31 11.16L319.31 11.16L319.31 11.16Q318.50 13.09 318.44 13.31L318.44 13.31L318.44 13.31Q318.43 13.37 318.41 13.43L318.41 13.43L318.41 13.43Q318.39 13.48 318.37 13.52L318.37 13.52L318.37 13.52Q318.36 13.57 318.35 13.61L318.35 13.61L318.35 13.61Q318.33 13.65 318.32 13.68L318.32 13.68L318.32 13.68Q318.30 13.71 318.30 13.73L318.30 13.73L318.30 13.73Q318.29 13.76 318.28 13.78L318.28 13.78L318.28 13.78Q318.26 13.80 318.25 13.82L318.25 13.82L318.25 13.82Q318.23 13.83 318.22 13.84L318.22 13.84L318.22 13.84Q318.21 13.85 318.19 13.85L318.19 13.85L318.19 13.85Q318.18 13.86 318.15 13.86L318.15 13.86L318.15 13.86Q318.02 13.86 317.84 13.46L317.84 13.46L317.84 13.46Q317.66 13.06 317.18 11.89L317.18 11.89L317.18 11.89Q316.71 10.72 316.22 9.65L316.22 9.65L316.22 9.65Q315.41 7.87 314.50 5.63L314.50 5.63L314.50 5.63Q314.23 4.96 313.92 4.57L313.92 4.57L313.92 4.57Q313.61 4.19 313.38 4.09L313.38 4.09L313.38 4.09Q313.14 3.99 312.94 3.98L312.94 3.98L312.94 3.98Q312.75 3.96 312.63 3.92L312.63 3.92L312.63 3.92Q312.52 3.88 312.52 3.71ZM335.06 3.65L335.06 3.65L335.06 3.65Q335.06 3.46 335.45 3.46L335.45 3.46L335.45 3.46Q335.51 3.46 335.64 3.47L335.64 3.47L335.64 3.47Q335.76 3.49 335.83 3.49L335.83 3.49L335.83 3.49Q335.87 3.49 337.15 3.52L337.15 3.52L337.15 3.52Q338.42 3.56 339.25 3.56L339.25 3.56L339.25 3.56Q339.54 3.56 340.70 3.53L340.70 3.53L340.70 3.53Q341.85 3.50 342.05 3.50L342.05 3.50L342.05 3.50Q342.31 3.50 342.31 3.82L342.31 3.82L342.31 3.82Q342.31 3.91 342.23 4.38L342.23 4.38L342.23 4.38Q342.15 4.84 342.15 5.25L342.15 5.25L342.15 5.25Q342.15 5.38 342.08 5.47L342.08 5.47L342.08 5.47Q342.01 5.56 341.92 5.56L341.92 5.56L341.92 5.56Q341.71 5.56 341.71 5.26L341.71 5.26L341.71 5.26Q341.71 4.89 341.47 4.58L341.47 4.58L341.47 4.58Q341.24 4.27 340.89 4.26L340.89 4.26L340.89 4.26Q339.63 4.16 338.95 4.16L338.95 4.16L338.59 4.16L338.59 4.16Q337.86 4.16 337.74 4.26L337.74 4.26L337.74 4.26Q337.62 4.37 337.60 5.01L337.60 5.01L337.60 5.01Q337.54 6.02 337.54 7.35L337.54 7.35L337.54 7.35Q337.54 8.05 337.81 8.06L337.81 8.06L338.16 8.06L338.74 8.06L339.18 8.06L339.18 8.06Q340.02 8.06 340.30 8.01L340.30 8.01L340.30 8.01Q340.58 7.95 340.80 7.80L340.80 7.80L340.80 7.80Q341.07 7.62 341.12 7.28L341.12 7.28L341.12 7.28Q341.17 7.04 341.32 7.04L341.32 7.04L341.32 7.04Q341.45 7.04 341.47 7.08L341.47 7.08L341.47 7.08Q341.50 7.13 341.50 7.27L341.50 7.27L341.50 7.27Q341.50 7.36 341.45 7.91L341.45 7.91L341.45 7.91Q341.39 8.46 341.39 8.74L341.39 8.74L341.39 8.74Q341.39 9.00 341.41 9.24L341.41 9.24L341.41 9.24Q341.43 9.48 341.43 9.59L341.43 9.59L341.43 9.59Q341.43 9.94 341.33 9.94L341.33 9.94L341.33 9.94Q341.12 9.94 341.03 9.60L341.03 9.60L341.03 9.60Q340.83 9.02 340.68 8.92L340.68 8.92L340.68 8.92Q340.38 8.72 339.33 8.72L339.33 8.72L339.33 8.72Q338.91 8.72 338.65 8.72L338.65 8.72L338.65 8.72Q338.39 8.72 338.32 8.71L338.32 8.71L338.32 8.71Q338.24 8.71 338.19 8.71L338.19 8.71L338.19 8.71Q338.14 8.71 338.10 8.71L338.10 8.71L338.10 8.71Q337.53 8.71 337.53 8.97L337.53 8.97L337.53 8.97Q337.53 9.38 337.51 9.99L337.51 9.99L337.51 9.99Q337.50 10.60 337.50 10.99L337.50 10.99L337.50 11.55L337.50 11.55Q337.50 12.56 337.83 12.66L337.83 12.66L337.83 12.66Q338.18 12.77 338.44 12.77L338.44 12.77L338.44 12.77Q339.49 12.77 340.28 12.67L340.28 12.67L340.28 12.67Q341.07 12.57 341.47 12.42L341.47 12.42L341.47 12.42Q341.87 12.28 342.13 12.10L342.13 12.10L342.13 12.10Q342.40 11.93 342.48 11.78L342.48 11.78L342.48 11.78Q342.55 11.63 342.63 11.54L342.63 11.54L342.63 11.54Q342.71 11.44 342.79 11.44L342.79 11.44L342.79 11.44Q342.96 11.44 342.96 11.68L342.96 11.68L342.96 11.68Q342.96 12.28 342.36 12.89L342.36 12.89L342.36 12.89Q341.75 13.51 341.31 13.51L341.31 13.51L341.31 13.51Q340.30 13.51 339.03 13.44L339.03 13.44L339.03 13.44Q337.76 13.37 337.46 13.37L337.46 13.37L337.46 13.37Q337.06 13.37 336.48 13.43L336.48 13.43L336.48 13.43Q335.89 13.50 335.55 13.50L335.55 13.50L335.55 13.50Q335.26 13.50 335.26 13.36L335.26 13.36L335.26 13.36Q335.26 13.23 335.26 13.19L335.26 13.19L335.26 13.19Q335.26 13.15 335.30 13.12L335.30 13.12L335.30 13.12Q335.34 13.09 335.39 13.08L335.39 13.08L335.39 13.08Q335.44 13.08 335.57 13.03L335.57 13.03L335.57 13.03Q335.71 12.99 335.86 12.92L335.86 12.92L335.86 12.92Q336.20 12.75 336.30 12.26L336.30 12.26L336.30 12.26Q336.41 11.77 336.41 10.21L336.41 10.21L336.41 8.47L336.41 8.47Q336.41 8.09 336.43 7.29L336.43 7.29L336.43 7.29Q336.45 6.50 336.45 6.05L336.45 6.05L336.45 6.05Q336.45 5.67 336.42 4.77L336.42 4.77L336.42 4.77Q336.41 4.37 336.07 4.14L336.07 4.14L336.07 4.14Q335.73 3.92 335.29 3.91L335.29 3.91L335.29 3.91Q335.06 3.91 335.06 3.65ZM360.50 3.71L360.50 3.71L360.50 3.71Q360.50 3.51 360.88 3.51L360.88 3.51L360.88 3.51Q360.96 3.51 361.42 3.54L361.42 3.54L361.42 3.54Q361.87 3.56 362.42 3.56L362.42 3.56L362.42 3.56Q362.81 3.56 363.20 3.54L363.20 3.54L363.20 3.54Q363.59 3.51 363.62 3.51L363.62 3.51L363.62 3.51Q363.75 3.51 363.78 3.55L363.78 3.55L363.78 3.55Q363.82 3.58 363.82 3.68L363.82 3.68L363.82 3.68Q363.82 3.77 363.52 3.92L363.52 3.92L363.52 3.92Q363.22 4.07 363.22 4.34L363.22 4.34L363.22 4.34Q363.22 4.47 363.27 4.65L363.27 4.65L363.27 4.65Q363.33 4.83 363.50 5.22L363.50 5.22L363.50 5.22Q363.66 5.61 363.85 6.03L363.85 6.03L363.85 6.03Q364.04 6.45 364.43 7.33L364.43 7.33L364.43 7.33Q364.83 8.20 365.20 9.07L365.20 9.07L365.20 9.07Q365.30 9.30 365.49 9.74L365.49 9.74L365.49 9.74Q365.68 10.18 365.80 10.46L365.80 10.46L365.80 10.46Q365.92 10.74 366.06 11.05L366.06 11.05L366.06 11.05Q366.20 11.37 366.29 11.52L366.29 11.52L366.29 11.52Q366.38 11.68 366.42 11.68L366.42 11.68L366.42 11.68Q366.48 11.68 366.87 10.81L366.87 10.81L366.87 10.81Q367.26 9.94 367.57 9.17L367.57 9.17L367.57 9.17Q367.63 9.04 367.70 8.89L367.70 8.89L367.70 8.89Q367.78 8.74 367.82 8.63L367.82 8.63L367.82 8.63Q367.85 8.53 367.85 8.41L367.85 8.41L367.85 8.41Q367.85 8.25 367.01 6.36L367.01 6.36L367.01 6.36Q366.17 4.48 365.93 4.21L365.93 4.21L365.93 4.21Q365.88 4.14 365.82 4.10L365.82 4.10L365.82 4.10Q365.76 4.06 365.72 4.02L365.72 4.02L365.72 4.02Q365.67 3.99 365.63 3.97L365.63 3.97L365.63 3.97Q365.60 3.95 365.54 3.94L365.54 3.94L365.54 3.94Q365.48 3.93 365.46 3.93L365.46 3.93L365.46 3.93Q365.44 3.93 365.38 3.93L365.38 3.93L365.38 3.93Q365.32 3.92 365.30 3.92L365.30 3.92L365.30 3.92Q364.91 3.88 364.83 3.84L364.83 3.84L364.83 3.84Q364.74 3.81 364.74 3.70L364.74 3.70L364.74 3.70Q364.74 3.50 365.15 3.50L365.15 3.50L365.15 3.50Q365.23 3.50 365.69 3.53L365.69 3.53L365.69 3.53Q366.16 3.56 366.69 3.56L366.69 3.56L366.69 3.56Q366.72 3.56 367.07 3.53L367.07 3.53L367.07 3.53Q367.42 3.50 367.61 3.50L367.61 3.50L367.61 3.50Q368.03 3.50 368.03 3.61L368.03 3.61L368.03 3.61Q368.03 3.70 367.88 3.78L367.88 3.78L367.88 3.78Q367.72 3.86 367.58 4.00L367.58 4.00L367.58 4.00Q367.43 4.13 367.43 4.33L367.43 4.33L367.43 4.33Q367.43 4.59 367.86 5.57L367.86 5.57L367.86 5.57Q367.89 5.63 368.05 6.03L368.05 6.03L368.05 6.03Q368.21 6.44 368.34 6.71L368.34 6.71L368.34 6.71Q368.47 6.99 368.52 6.99L368.52 6.99L368.52 6.99Q368.63 6.99 369.08 5.76L369.08 5.76L369.08 5.76Q369.53 4.54 369.53 4.31L369.53 4.31L369.53 4.31Q369.53 4.06 369.32 3.96L369.32 3.96L369.32 3.96Q369.11 3.85 368.90 3.80L368.90 3.80L368.90 3.80Q368.69 3.75 368.69 3.64L368.69 3.64L368.69 3.64Q368.69 3.49 369.00 3.49L369.00 3.49L369.00 3.49Q369.08 3.49 369.42 3.50L369.42 3.50L369.42 3.50Q369.75 3.51 369.89 3.51L369.89 3.51L370.13 3.51L370.13 3.51Q370.33 3.51 370.87 3.47L370.87 3.47L371.00 3.47L371.00 3.47Q371.18 3.47 371.18 3.61L371.18 3.61L371.18 3.61Q371.18 3.75 370.92 3.84L370.92 3.84L370.92 3.84Q370.65 3.92 370.55 4.02L370.55 4.02L370.55 4.02Q370.33 4.24 370.16 4.66L370.16 4.66L370.16 4.66Q369.87 5.38 369.46 6.33L369.46 6.33L369.46 6.33Q369.04 7.31 368.97 7.50L368.97 7.50L368.97 7.50Q368.90 7.70 368.90 7.85L368.90 7.85L368.90 7.85Q368.90 7.97 369.75 9.87L369.75 9.87L369.75 9.87Q370.61 11.77 370.76 11.77L370.76 11.77L370.76 11.77Q370.93 11.77 372.39 8.24L372.39 8.24L372.39 8.24Q373.86 4.70 373.86 4.35L373.86 4.35L373.86 4.35Q373.86 4.13 373.70 4.01L373.70 4.01L373.70 4.01Q373.53 3.89 373.34 3.87L373.34 3.87L373.34 3.87Q373.14 3.85 372.98 3.80L372.98 3.80L372.98 3.80Q372.82 3.75 372.82 3.64L372.82 3.64L372.82 3.64Q372.82 3.54 372.86 3.52L372.86 3.52L372.86 3.52Q372.90 3.50 373.09 3.50L373.09 3.50L373.09 3.50Q373.13 3.50 373.41 3.51L373.41 3.51L373.41 3.51Q373.69 3.51 373.97 3.51L373.97 3.51L373.97 3.51Q374.22 3.51 374.54 3.50L374.54 3.50L374.54 3.50Q374.85 3.49 375.21 3.49L375.21 3.49L375.21 3.49Q375.49 3.49 375.49 3.68L375.49 3.68L375.49 3.68Q375.49 3.78 375.42 3.84L375.42 3.84L375.42 3.84Q375.34 3.89 375.19 3.98L375.19 3.98L375.19 3.98Q375.03 4.06 374.92 4.17L374.92 4.17L374.92 4.17Q374.85 4.24 374.80 4.31L374.80 4.31L374.80 4.31Q374.75 4.38 374.70 4.49L374.70 4.49L374.70 4.49Q374.64 4.59 374.61 4.66L374.61 4.66L374.61 4.66Q374.57 4.73 374.49 4.91L374.49 4.91L374.49 4.91Q374.42 5.08 374.37 5.18L374.37 5.18L374.37 5.18Q373.30 7.59 371.97 10.58L371.97 10.58L371.97 10.58Q370.90 13.01 370.71 13.41L370.71 13.41L370.71 13.41Q370.51 13.82 370.40 13.82L370.40 13.82L370.40 13.82Q370.33 13.82 370.23 13.64L370.23 13.64L370.23 13.64Q370.13 13.47 369.96 13.05L369.96 13.05L369.96 13.05Q369.78 12.64 369.75 12.57L369.75 12.57L369.75 12.57Q369.61 12.26 369.38 11.72L369.38 11.72L369.38 11.72Q369.15 11.17 368.99 10.79L368.99 10.79L368.99 10.79Q368.83 10.42 368.66 10.02L368.66 10.02L368.66 10.02Q368.49 9.63 368.38 9.43L368.38 9.43L368.38 9.43Q368.27 9.23 368.23 9.23L368.23 9.23L368.23 9.23Q368.09 9.23 367.28 11.16L367.28 11.16L367.28 11.16Q366.48 13.09 366.42 13.31L366.42 13.31L366.42 13.31Q366.41 13.37 366.39 13.43L366.39 13.43L366.39 13.43Q366.37 13.48 366.35 13.52L366.35 13.52L366.35 13.52Q366.34 13.57 366.32 13.61L366.32 13.61L366.32 13.61Q366.31 13.65 366.30 13.68L366.30 13.68L366.30 13.68Q366.28 13.71 366.28 13.73L366.28 13.73L366.28 13.73Q366.27 13.76 366.25 13.78L366.25 13.78L366.25 13.78Q366.24 13.80 366.23 13.82L366.23 13.82L366.23 13.82Q366.21 13.83 366.20 13.84L366.20 13.84L366.20 13.84Q366.18 13.85 366.17 13.85L366.17 13.85L366.17 13.85Q366.16 13.86 366.13 13.86L366.13 13.86L366.13 13.86Q366.00 13.86 365.82 13.46L365.82 13.46L365.82 13.46Q365.64 13.06 365.16 11.89L365.16 11.89L365.16 11.89Q364.69 10.72 364.20 9.65L364.20 9.65L364.20 9.65Q363.38 7.87 362.47 5.63L362.47 5.63L362.47 5.63Q362.21 4.96 361.90 4.57L361.90 4.57L361.90 4.57Q361.59 4.19 361.35 4.09L361.35 4.09L361.35 4.09Q361.12 3.99 360.92 3.98L360.92 3.98L360.92 3.98Q360.72 3.96 360.61 3.92L360.61 3.92L360.61 3.92Q360.50 3.88 360.50 3.71ZM383.04 3.71L383.04 3.71L383.04 3.71Q383.04 3.50 383.43 3.50L383.43 3.50L383.43 3.50Q383.57 3.50 384.08 3.53L384.08 3.53L384.08 3.53Q384.58 3.56 385.01 3.56L385.01 3.56L385.01 3.56Q385.28 3.56 385.53 3.54L385.53 3.54L385.53 3.54Q385.77 3.53 386.25 3.53L386.25 3.53L386.25 3.53Q386.62 3.53 386.62 3.72L386.62 3.72L386.62 3.72Q386.62 3.84 385.98 4.10L385.98 4.10L385.98 4.10Q385.53 4.28 385.53 5.71L385.53 5.71L385.53 5.71Q385.53 7.60 385.51 9.05L385.51 9.05L385.51 9.05Q385.49 10.50 385.49 10.89L385.49 10.89L385.49 10.89Q385.49 12.07 385.84 12.59L385.84 12.59L385.84 12.59Q386.15 13.02 386.51 13.02L386.51 13.02L386.51 13.02Q386.54 13.02 386.65 13.03L386.65 13.03L386.65 13.03Q386.76 13.03 386.79 13.03L386.79 13.03L386.79 13.03Q386.89 13.03 386.99 13.08L386.99 13.08L386.99 13.08Q387.09 13.13 387.09 13.19L387.09 13.19L387.09 13.19Q387.09 13.34 387.01 13.39L387.01 13.39L387.01 13.39Q386.93 13.44 386.74 13.44L386.74 13.44L386.74 13.44Q386.32 13.44 385.96 13.41L385.96 13.41L385.96 13.41Q385.60 13.38 385.41 13.38L385.41 13.38L385.41 13.38Q385.01 13.38 384.55 13.42L384.55 13.42L384.55 13.42Q384.09 13.45 383.87 13.45L383.87 13.45L383.87 13.45Q383.24 13.45 383.24 13.24L383.24 13.24L383.24 13.24Q383.24 13.12 383.37 13.07L383.37 13.07L383.37 13.07Q383.50 13.02 383.67 13.00L383.67 13.00L383.67 13.00Q383.84 12.98 384.02 12.82L384.02 12.82L384.02 12.82Q384.20 12.66 384.27 12.35L384.27 12.35L384.27 12.35Q384.30 12.25 384.36 10.76L384.36 10.76L384.36 10.76Q384.43 9.27 384.43 8.61L384.43 8.61L384.43 7.81L384.43 7.81Q384.43 7.63 384.43 7.12L384.43 7.12L384.43 7.12Q384.44 6.61 384.44 6.30L384.44 6.30L384.44 5.66L384.44 5.66Q384.44 5.04 384.38 4.63L384.38 4.63L384.38 4.63Q384.34 4.30 384.01 4.12L384.01 4.12L384.01 4.12Q383.68 3.93 383.33 3.92L383.33 3.92L383.33 3.92Q383.04 3.91 383.04 3.71ZM394.63 3.71L394.63 3.71L394.63 3.71Q394.63 3.46 395.01 3.46L395.01 3.46L395.01 3.46Q395.07 3.46 395.19 3.47L395.19 3.47L395.19 3.47Q395.32 3.49 395.39 3.49L395.39 3.49L395.39 3.49Q395.53 3.49 395.91 3.51L395.91 3.51L395.91 3.51Q396.30 3.54 396.61 3.54L396.61 3.54L396.61 3.54Q397.04 3.54 397.53 3.51L397.53 3.51L397.53 3.51Q398.02 3.49 398.08 3.49L398.08 3.49L398.08 3.49Q398.31 3.49 398.31 3.63L398.31 3.63L398.31 3.63Q398.31 3.82 398.15 3.88L398.15 3.88L398.15 3.88Q397.98 3.95 397.78 3.97L397.78 3.97L397.78 3.97Q397.57 3.99 397.38 4.28L397.38 4.28L397.38 4.28Q397.19 4.56 397.17 5.14L397.17 5.14L397.17 5.14Q397.14 5.68 397.10 8.19L397.10 8.19L397.10 8.19Q397.05 10.70 397.05 10.99L397.05 10.99L397.05 11.55L397.05 11.55Q397.05 12.56 397.39 12.66L397.39 12.66L397.39 12.66Q397.74 12.77 397.99 12.77L397.99 12.77L397.99 12.77Q399.04 12.77 399.83 12.67L399.83 12.67L399.83 12.67Q400.62 12.57 401.02 12.42L401.02 12.42L401.02 12.42Q401.42 12.28 401.69 12.10L401.69 12.10L401.69 12.10Q401.95 11.93 402.03 11.78L402.03 11.78L402.03 11.78Q402.11 11.63 402.19 11.54L402.19 11.54L402.19 11.54Q402.26 11.44 402.35 11.44L402.35 11.44L402.35 11.44Q402.51 11.44 402.51 11.68L402.51 11.68L402.51 11.68Q402.51 12.28 401.91 12.89L401.91 12.89L401.91 12.89Q401.31 13.51 400.86 13.51L400.86 13.51L400.86 13.51Q399.85 13.51 398.59 13.44L398.59 13.44L398.59 13.44Q397.32 13.37 397.01 13.37L397.01 13.37L397.01 13.37Q396.62 13.37 396.11 13.43L396.11 13.43L396.11 13.43Q395.60 13.48 395.26 13.48L395.26 13.48L395.26 13.48Q394.86 13.48 394.86 13.31L394.86 13.31L394.86 13.31Q394.86 13.22 394.93 13.15L394.93 13.15L394.93 13.15Q395.01 13.09 395.08 13.09L395.08 13.09L395.08 13.09Q395.29 13.09 395.49 12.95L395.49 12.95L395.49 12.95Q395.74 12.75 395.85 12.23L395.85 12.23L395.85 12.23Q395.96 11.70 395.96 10.21L395.96 10.21L395.96 8.47L395.96 8.47Q395.96 8.09 395.98 7.29L395.98 7.29L395.98 7.29Q396.00 6.50 396.00 6.05L396.00 6.05L396.00 6.05Q396.00 5.67 395.98 4.77L395.98 4.77L395.98 4.77Q395.96 4.37 395.63 4.14L395.63 4.14L395.63 4.14Q395.29 3.92 394.84 3.91L394.84 3.91L394.84 3.91Q394.70 3.91 394.67 3.86L394.67 3.86L394.67 3.86Q394.63 3.81 394.63 3.71ZM410.07 3.71L410.07 3.71L410.07 3.71Q410.07 3.46 410.45 3.46L410.45 3.46L410.45 3.46Q410.51 3.46 410.63 3.47L410.63 3.47L410.63 3.47Q410.76 3.49 410.83 3.49L410.83 3.49L410.83 3.49Q410.97 3.49 411.36 3.51L411.36 3.51L411.36 3.51Q411.74 3.54 412.05 3.54L412.05 3.54L412.05 3.54Q412.48 3.54 412.97 3.51L412.97 3.51L412.97 3.51Q413.46 3.49 413.52 3.49L413.52 3.49L413.52 3.49Q413.76 3.49 413.76 3.63L413.76 3.63L413.76 3.63Q413.76 3.82 413.59 3.88L413.59 3.88L413.59 3.88Q413.42 3.95 413.22 3.97L413.22 3.97L413.22 3.97Q413.01 3.99 412.83 4.28L412.83 4.28L412.83 4.28Q412.64 4.56 412.61 5.14L412.61 5.14L412.61 5.14Q412.58 5.68 412.54 8.19L412.54 8.19L412.54 8.19Q412.50 10.70 412.50 10.99L412.50 10.99L412.50 11.55L412.50 11.55Q412.50 12.56 412.83 12.66L412.83 12.66L412.83 12.66Q413.18 12.77 413.43 12.77L413.43 12.77L413.43 12.77Q414.48 12.77 415.28 12.67L415.28 12.67L415.28 12.67Q416.07 12.57 416.47 12.42L416.47 12.42L416.47 12.42Q416.86 12.28 417.13 12.10L417.13 12.10L417.13 12.10Q417.40 11.93 417.47 11.78L417.47 11.78L417.47 11.78Q417.55 11.63 417.63 11.54L417.63 11.54L417.63 11.54Q417.70 11.44 417.79 11.44L417.79 11.44L417.79 11.44Q417.96 11.44 417.96 11.68L417.96 11.68L417.96 11.68Q417.96 12.28 417.35 12.89L417.35 12.89L417.35 12.89Q416.75 13.51 416.30 13.51L416.30 13.51L416.30 13.51Q415.30 13.51 414.03 13.44L414.03 13.44L414.03 13.44Q412.76 13.37 412.45 13.37L412.45 13.37L412.45 13.37Q412.06 13.37 411.55 13.43L411.55 13.43L411.55 13.43Q411.04 13.48 410.70 13.48L410.70 13.48L410.70 13.48Q410.30 13.48 410.30 13.31L410.30 13.31L410.30 13.31Q410.30 13.22 410.38 13.15L410.38 13.15L410.38 13.15Q410.45 13.09 410.52 13.09L410.52 13.09L410.52 13.09Q410.73 13.09 410.93 12.95L410.93 12.95L410.93 12.95Q411.18 12.75 411.29 12.23L411.29 12.23L411.29 12.23Q411.40 11.70 411.40 10.21L411.40 10.21L411.40 8.47L411.40 8.47Q411.40 8.09 411.43 7.29L411.43 7.29L411.43 7.29Q411.45 6.50 411.45 6.05L411.45 6.05L411.45 6.05Q411.45 5.67 411.42 4.77L411.42 4.77L411.42 4.77Q411.40 4.37 411.07 4.14L411.07 4.14L411.07 4.14Q410.73 3.92 410.28 3.91L410.28 3.91L410.28 3.91Q410.14 3.91 410.11 3.86L410.11 3.86L410.11 3.86Q410.07 3.81 410.07 3.71ZM426.19 12.56L426.19 12.56L426.19 12.56Q426.19 12.46 426.59 12.11L426.59 12.11L426.59 12.11Q426.65 12.07 426.77 11.91L426.77 11.91L426.77 11.91Q426.89 11.76 427.00 11.67L427.00 11.67L427.00 11.67Q427.11 11.58 427.22 11.58L427.22 11.58L427.22 11.58Q427.28 11.58 427.32 11.61L427.32 11.61L427.32 11.61Q427.36 11.63 427.45 11.72L427.45 11.72L427.45 11.72Q427.53 11.82 427.55 11.83L427.55 11.83L427.55 11.83Q427.70 12.00 427.86 12.12L427.86 12.12L427.86 12.12Q428.02 12.25 428.10 12.31L428.10 12.31L428.10 12.31Q428.18 12.36 428.23 12.42L428.23 12.42L428.23 12.42Q428.29 12.49 428.29 12.57L428.29 12.57L428.29 12.57Q428.29 12.68 428.20 12.78L428.20 12.78L428.20 12.78Q428.11 12.88 427.95 12.98L427.95 12.98L427.95 12.98Q427.80 13.09 427.76 13.13L427.76 13.13L427.76 13.13Q427.70 13.19 427.60 13.33L427.60 13.33L427.60 13.33Q427.50 13.47 427.41 13.54L427.41 13.54L427.41 13.54Q427.32 13.62 427.24 13.62L427.24 13.62L427.24 13.62Q427.15 13.62 426.96 13.46L426.96 13.46L426.96 13.46Q426.76 13.30 426.65 13.15L426.65 13.15L426.65 13.15Q426.61 13.09 426.48 12.98L426.48 12.98L426.48 12.98Q426.36 12.88 426.27 12.77L426.27 12.77L426.27 12.77Q426.19 12.67 426.19 12.56ZM426.61 4.33L426.61 4.33L426.61 4.33Q426.61 3.79 427.29 3.79L427.29 3.79L427.29 3.79Q427.63 3.79 427.78 3.89L427.78 3.89L427.78 3.89Q427.94 3.99 427.94 4.24L427.94 4.24L427.94 4.24Q427.94 4.28 427.93 4.34L427.93 4.34L427.93 4.34Q427.92 4.40 427.90 4.53L427.90 4.53L427.90 4.53Q427.88 4.66 427.87 4.79L427.87 4.79L427.87 4.79Q427.81 5.26 427.70 7.05L427.70 7.05L427.70 7.05Q427.59 8.83 427.38 10.50L427.38 10.50L427.38 10.50Q427.35 10.65 427.18 10.65L427.18 10.65L427.18 10.65Q427.01 10.65 427.01 10.53L427.01 10.53L427.01 10.53Q426.89 9.09 426.83 8.24L426.83 8.24L426.83 8.24Q426.78 7.39 426.77 7.18L426.77 7.18L426.77 7.18Q426.76 6.97 426.76 6.77L426.76 6.77L426.76 6.77Q426.75 6.57 426.73 6.34L426.73 6.34L426.73 6.34Q426.61 4.58 426.61 4.33Z"></path></g></svg>