<svg data-v-423bf9ae="" xmlns="http://www.w3.org/2000/svg" viewBox="0 0 383.71085395304624 60" class="font"><!----><!----><!----><g data-v-423bf9ae="" id="7632b7d4-c065-4415-9b85-ecdfe3b5800c" fill="black" transform="matrix(6.187886862428784,0,0,6.187886862428784,-8.72491843111672,-20.420026589372128)"><path d="M1.41 12.84L1.41 4.03L2.52 4.03L2.52 12.84L1.41 12.84ZM6.27 6.15L6.40 7.43L6.40 7.43Q7.06 5.98 8.65 5.98L8.65 5.98L8.65 5.98Q9.84 5.98 10.51 6.76L10.51 6.76L10.51 6.76Q11.17 7.55 11.17 8.90L11.17 8.90L11.17 12.84L10.08 12.84L10.08 8.90L10.08 8.90Q10.08 7.94 9.63 7.45L9.63 7.45L9.63 7.45Q9.17 6.96 8.33 6.96L8.33 6.96L8.33 6.96Q7.49 6.96 6.97 7.64L6.97 7.64L6.97 7.64Q6.45 8.33 6.43 9.55L6.43 9.55L6.43 12.84L5.32 12.84L5.32 6.15L6.27 6.15ZM17.12 11.86L17.28 12.64L17.28 12.64Q16.07 13.20 15.08 12.88L15.08 12.88L15.08 12.88Q14.36 12.66 14.07 11.94L14.07 11.94L14.07 11.94Q13.92 11.59 13.92 11.10L13.92 11.10L13.92 6.99L12.84 6.99L12.84 6.15L13.92 6.15L13.92 4.28L15.01 4.28L15.01 6.15L17.11 6.15L17.11 6.99L15.01 6.99L15.01 11.09L15.01 11.09Q15.01 12.11 15.96 12.11L15.96 12.11L15.96 12.11Q16.48 12.11 17.12 11.86L17.12 11.86ZM21.35 12.10L21.35 12.10L21.35 12.10Q22.74 12.10 22.93 10.88L22.93 10.88L24.07 10.88L24.07 10.88Q23.91 11.89 23.18 12.44L23.18 12.44L23.18 12.44Q22.44 12.99 21.35 12.99L21.35 12.99L21.35 12.99Q20.01 12.99 19.17 12.03L19.17 12.03L19.17 12.03Q18.33 11.07 18.33 9.48L18.33 9.48L18.33 9.48Q18.33 7.88 19.17 6.93L19.17 6.93L19.17 6.93Q20.02 5.98 21.43 5.98L21.43 5.98L21.43 5.98Q22.83 5.98 23.53 7.07L23.53 7.07L23.53 7.07Q24.22 8.16 24.01 9.73L24.01 9.73L19.43 9.73L19.43 9.73Q19.43 10.77 19.94 11.43L19.94 11.43L19.94 11.43Q20.44 12.10 21.35 12.10ZM22.16 7.03L22.16 7.03L22.16 7.03Q21.84 6.86 21.38 6.86L21.38 6.86L21.38 6.86Q20.52 6.86 20.03 7.44L20.03 7.44L20.03 7.44Q19.53 8.02 19.45 8.89L19.45 8.89L23.02 8.89L23.02 8.89Q23.02 7.49 22.16 7.03ZM28.98 7.08L28.98 7.08L28.98 7.08Q27.40 7.08 27.34 9.58L27.34 9.58L27.34 12.84L26.24 12.84L26.24 6.13L27.34 6.13L27.34 7.42L27.34 7.42Q27.85 6.02 29.12 6.02L29.12 6.02L29.12 6.02Q29.53 6.02 29.89 6.15L29.89 6.15L29.83 7.22L29.83 7.22Q29.41 7.08 28.98 7.08ZM29.58 4.98L29.58 4.03L36.43 4.03L36.43 4.98L33.56 4.98L33.56 12.84L32.45 12.84L32.45 4.98L29.58 4.98ZM39.63 7.08L39.63 7.08L39.63 7.08Q38.05 7.08 38.00 9.58L38.00 9.58L38.00 12.84L36.89 12.84L36.89 6.13L38.00 6.13L38.00 7.42L38.00 7.42Q38.50 6.02 39.77 6.02L39.77 6.02L39.77 6.02Q40.18 6.02 40.54 6.15L40.54 6.15L40.49 7.22L40.49 7.22Q40.07 7.08 39.63 7.08ZM46.38 9.35L46.38 8.50L46.38 8.50Q46.38 7.59 46.00 7.20L46.00 7.20L46.00 7.20Q45.63 6.80 44.91 6.80L44.91 6.80L44.91 6.80Q44.18 6.80 43.74 7.09L43.74 7.09L43.74 7.09Q43.30 7.38 43.30 7.99L43.30 7.99L42.08 7.99L42.08 7.99Q42.08 6.45 43.74 6.09L43.74 6.09L43.74 6.09Q44.24 5.98 44.83 5.98L44.83 5.98L44.83 5.98Q46.07 5.98 46.77 6.61L46.77 6.61L46.77 6.61Q47.47 7.24 47.47 8.53L47.47 8.53L47.47 12.84L46.52 12.84L46.41 11.72L46.41 11.72Q45.79 12.99 44.18 12.99L44.18 12.99L44.18 12.99Q43.11 12.99 42.46 12.39L42.46 12.39L42.46 12.39Q41.80 11.79 41.80 10.89L41.80 10.89L41.80 10.89Q41.80 10.00 42.53 9.49L42.53 9.49L42.53 9.49Q43.25 8.99 44.32 8.99L44.32 8.99L44.32 8.99Q45.40 8.99 46.38 9.35L46.38 9.35ZM46.38 10.05L46.38 10.05L46.38 10.05Q45.39 9.77 44.65 9.77L44.65 9.77L44.65 9.77Q43.90 9.77 43.44 10.04L43.44 10.04L43.44 10.04Q42.98 10.30 42.98 10.88L42.98 10.88L42.98 10.88Q42.98 12.14 44.41 12.14L44.41 12.14L44.41 12.14Q45.22 12.14 45.80 11.56L45.80 11.56L45.80 11.56Q46.38 10.98 46.38 10.05ZM54.46 7.14L54.46 7.14L54.46 3.30L55.55 3.30L55.55 12.84L54.66 12.84L54.52 11.72L54.52 11.72Q54.19 12.35 53.66 12.67L53.66 12.67L53.66 12.67Q53.13 12.99 52.50 12.99L52.50 12.99L52.50 12.99Q51.23 12.99 50.37 12.01L50.37 12.01L50.37 12.01Q49.50 11.03 49.50 9.46L49.50 9.46L49.50 9.46Q49.50 7.88 50.35 6.93L50.35 6.93L50.35 6.93Q51.20 5.98 52.49 5.98L52.49 5.98L52.49 5.98Q53.79 5.98 54.46 7.14ZM52.56 6.96L52.56 6.96L52.56 6.96Q51.74 6.96 51.19 7.64L51.19 7.64L51.19 7.64Q50.64 8.33 50.64 9.48L50.64 9.48L50.64 9.48Q50.64 10.63 51.20 11.32L51.20 11.32L51.20 11.32Q51.76 12.01 52.54 12.01L52.54 12.01L52.54 12.01Q53.33 12.01 53.88 11.49L53.88 11.49L53.88 11.49Q54.43 10.96 54.46 10.08L54.46 10.08L54.46 8.99L54.46 8.99Q54.46 8.05 53.91 7.50L53.91 7.50L53.91 7.50Q53.37 6.96 52.56 6.96ZM60.70 12.10L60.70 12.10L60.70 12.10Q62.09 12.10 62.29 10.88L62.29 10.88L63.42 10.88L63.42 10.88Q63.27 11.89 62.53 12.44L62.53 12.44L62.53 12.44Q61.80 12.99 60.70 12.99L60.70 12.99L60.70 12.99Q59.36 12.99 58.52 12.03L58.52 12.03L58.52 12.03Q57.68 11.07 57.68 9.48L57.68 9.48L57.68 9.48Q57.68 7.88 58.53 6.93L58.53 6.93L58.53 6.93Q59.37 5.98 60.78 5.98L60.78 5.98L60.78 5.98Q62.19 5.98 62.88 7.07L62.88 7.07L62.88 7.07Q63.57 8.16 63.36 9.73L63.36 9.73L58.79 9.73L58.79 9.73Q58.79 10.77 59.29 11.43L59.29 11.43L59.29 11.43Q59.79 12.10 60.70 12.10ZM61.52 7.03L61.52 7.03L61.52 7.03Q61.19 6.86 60.73 6.86L60.73 6.86L60.73 6.86Q59.88 6.86 59.38 7.44L59.38 7.44L59.38 7.44Q58.88 8.02 58.80 8.89L58.80 8.89L62.37 8.89L62.37 8.89Q62.37 7.49 61.52 7.03Z"></path></g><!----><!----></svg>